<svg width="221" height="81" viewBox="0 0 221 81" fill="none" xmlns="http://www.w3.org/2000/svg">
<path d="M109.138 7.53223C108.68 7.41431 108.269 7.21961 107.904 6.94812C107.792 6.86311 107.667 6.81376 107.528 6.80005C107.185 6.7644 106.866 6.66157 106.572 6.49155C106.465 6.42975 106.345 6.39978 106.225 6.40516C105.674 6.42984 105.147 6.36814 104.643 6.22006C104.284 6.11723 103.891 6.30233 103.507 6.24885C100.034 5.75525 96.3319 5.14648 92.8464 4.92024C88.6948 4.64876 84.1877 4.46365 79.3251 4.36493C75.5739 4.28678 72.1252 4.61585 68.5211 5.24519C68.2732 5.28907 67.9899 5.40425 67.6712 5.59072C67.7611 5.50845 67.7638 5.43441 67.6793 5.3686C67.6112 5.31649 67.535 5.2877 67.4505 5.28222C63.8655 5.07107 60.4862 3.77535 57.3126 1.39509C57.2938 1.38105 57.2795 1.36169 57.2715 1.33947C57.2636 1.31725 57.2624 1.29317 57.2681 1.27027C57.2738 1.24736 57.2861 1.22667 57.3035 1.21082C57.3209 1.19496 57.3425 1.18466 57.3657 1.1812C59.0411 0.912457 60.647 0.676624 62.1834 0.473698C62.6383 0.416111 63.0578 0.287225 63.4419 0.0870414C63.5645 0.0239699 63.6939 -0.00482639 63.8301 0.000658088C66.2601 0.0555029 68.8453 0.172051 71.5858 0.350296C74.9011 0.564191 77.993 0.717754 80.8615 0.810991C83.0735 0.882289 85.4067 1.13869 87.8612 1.58019C91.3781 2.21639 95.0366 2.85807 98.8368 3.50524C100.409 3.77398 102.099 4.40059 103.908 5.38505C104.333 5.61814 104.852 5.77171 105.465 5.84575C106.917 6.01851 108.141 6.58067 109.138 7.53223Z" fill="#AFDBF1"/>
<path d="M130.002 30.1436C130.405 31.1309 130.538 32.3045 130.399 33.6647C130.377 33.8649 130.463 33.9924 130.656 34.0472C131.539 34.2885 132.321 34.076 133.002 33.4097C134.097 32.3443 134.902 31.1267 136.414 30.5755C137.807 30.0655 139.196 29.4403 140.741 29.7035C144.786 30.3987 148.872 32.3114 151.001 35.816C151.745 37.0445 152.327 38.2003 152.746 39.2835C152.994 39.917 152.901 40.5066 152.468 41.0523C152.101 41.5157 151.793 42.0121 151.545 42.5413C151.479 42.6812 151.377 42.7182 151.238 42.6524L150.576 42.3398C150.521 42.3139 150.46 42.3072 150.4 42.3206C150.341 42.334 150.288 42.3668 150.25 42.4138C150.143 42.5482 150.143 42.6688 150.25 42.7758C150.481 42.9979 150.717 43.2063 150.956 43.401C150.982 43.4223 151.003 43.4494 151.016 43.4801C151.03 43.5108 151.036 43.5444 151.034 43.5783C151.033 43.6121 151.023 43.6453 151.007 43.6752C150.991 43.7051 150.968 43.7309 150.94 43.7506C149.107 45.0313 147.174 46.1186 145.142 47.0125C143.94 47.539 143.528 47.8928 142.49 47.5267C142.16 47.4115 141.821 47.3375 141.472 47.3046C140.982 47.2607 140.787 47.3485 140.888 47.5678C140.929 47.6556 140.994 47.7146 141.084 47.7447C141.648 47.9449 142.238 48.1547 142.853 48.3741C142.887 48.386 142.917 48.406 142.941 48.4323C142.965 48.4586 142.982 48.4904 142.991 48.5249C142.999 48.5594 143 48.5955 142.992 48.6302C142.983 48.6649 142.967 48.697 142.943 48.7237C141.129 50.7516 139.911 53.7502 138.873 56.3005C138.607 56.9532 138.157 57.3439 137.525 57.4728C137.348 57.5112 137.198 57.4646 137.076 57.333C136.626 56.8613 136.118 56.5542 135.551 56.4116C135.382 56.3704 135.297 56.2635 135.294 56.0907C135.278 55.2886 135.331 53.6885 134.473 53.2813C134.347 53.221 134.276 53.1209 134.26 52.981C134.17 52.1584 134.005 51.3137 133.766 50.4472C133.549 49.6698 133.1 49.098 133.173 48.2548C133.187 48.0953 133.148 47.9357 133.061 47.8015C132.974 47.6673 132.846 47.5662 132.695 47.5144C132.434 47.4266 132.235 47.2593 132.099 47.0125C132.006 46.8453 131.866 46.7808 131.678 46.8192C131.452 46.8658 131.219 46.8741 130.979 46.8439C130.807 46.8247 130.674 46.7424 130.578 46.5971C130.29 46.1583 129.881 45.9609 129.353 46.0048C129.252 46.013 129.186 45.9677 129.156 45.869C129.146 45.8306 129.15 45.795 129.169 45.7621C129.182 45.7319 129.204 45.7113 129.234 45.7004C130.791 45.0834 132.262 44.561 133.533 43.3928C134.146 42.8251 134.101 42.0025 133.713 41.3402C131.879 38.2168 129.013 36.012 125.115 34.7259C120.171 33.0929 115.41 32.3649 110.376 31.7149C110.038 31.6683 109.699 31.5655 109.359 31.4064C109.114 31.2913 109.126 31.2433 109.395 31.2625C109.637 31.2789 109.874 31.2584 110.09 31.1391C113.425 29.2936 116.595 27.459 119.603 25.6354C122.153 24.0888 126.464 20.5719 123.342 17.2359C121.626 15.4014 119.819 13.6943 118.12 11.8351C115.335 8.79119 112.594 5.81175 109.894 2.89675C109.395 2.35927 109.469 2.26329 110.115 2.60881C110.826 2.98724 111.602 3.29574 112.293 3.71119C114.777 5.20297 117.202 6.62619 119.566 7.98086C120.901 8.7432 122.191 9.34924 123.436 9.79897C126.161 10.7862 129.05 12.5097 130.914 14.4964C132.333 16.0101 133.826 17.8337 135.392 19.9672C136.193 21.0586 136.86 22.1953 137.394 23.3772C137.441 23.4809 137.46 23.5955 137.449 23.709C137.437 23.8225 137.396 23.9309 137.329 24.023C135.486 26.5733 133.296 29.1235 130.174 29.8187C129.989 29.8598 129.931 29.9681 130.002 30.1436ZM145.644 37.8192C145.947 38.2182 145.869 38.6172 145.861 39.0737C145.854 39.333 145.937 39.5867 146.096 39.7909C146.255 39.9951 146.48 40.1372 146.731 40.1926C147.941 40.4558 149.641 39.444 148.562 37.9837C147.829 36.991 146.877 36.8306 145.706 37.5024C145.564 37.5847 145.544 37.6903 145.644 37.8192Z" fill="#2349A3"/>
<path d="M109.138 7.5324L112.444 10.3665C112.223 10.3939 112.162 10.4282 112.26 10.4693C111.895 10.3487 111.565 10.2033 111.271 10.0333C110.854 9.79474 110.534 9.63981 110.311 9.56851C109.314 9.25589 108.336 9.00223 107.377 8.80754C104.737 8.27006 102.044 7.9643 99.2985 7.89026C98.3342 7.86558 97.427 7.57764 96.4341 7.58587C92.4378 7.60781 88.3829 7.61603 84.2694 7.61055C83.4358 7.61055 82.4906 7.66265 81.4336 7.76686C80.6681 7.84364 79.7351 7.91083 78.6345 7.96841C76.5969 8.07262 74.1288 8.56622 71.2303 9.44922C70.9279 9.33404 70.3027 8.94739 69.3547 8.28925C68.3005 7.55982 67.7393 6.66036 67.6712 5.59089C67.9899 5.40442 68.2732 5.28924 68.5211 5.24536C72.1252 4.61602 75.574 4.28695 79.3251 4.36511C84.1877 4.46383 88.6948 4.64893 92.8464 4.92041C96.3319 5.14665 100.034 5.75542 103.507 6.24903C103.891 6.3025 104.284 6.1174 104.643 6.22023C105.147 6.36832 105.674 6.43002 106.225 6.40533C106.345 6.39995 106.465 6.42992 106.572 6.49172C106.866 6.66174 107.185 6.76457 107.528 6.80022C107.667 6.81393 107.792 6.86329 107.904 6.9483C108.269 7.21978 108.68 7.41448 109.138 7.5324Z" fill="#58B2DC"/>
<path d="M112.26 10.4693C111.729 10.5653 111.202 10.5297 110.679 10.3624C110.543 10.3213 110.404 10.313 110.262 10.3377C109.657 10.4474 109.065 10.4309 108.484 10.2883C108.002 10.1732 107.509 10.0854 107.005 10.0251C105.807 9.8825 104.611 9.73167 103.417 9.57262C102.164 9.40809 101.003 9.3217 99.9319 9.31348C97.3168 9.2888 94.6485 9.30936 92.021 9.58496C91.1466 9.67545 90.2626 9.75635 89.3691 9.82765C87.3505 9.98944 85.0894 10.4145 82.5859 11.1028C82.4552 11.1384 82.3367 11.1988 82.2304 11.2838C82.018 11.4565 81.7442 11.5799 81.4091 11.654C81.4037 11.3907 81.1939 11.2564 80.7798 11.2509C79.2026 11.2317 77.6403 11.2193 76.0929 11.2139C74.4448 11.0795 72.824 10.4913 71.2303 9.44922C74.1288 8.56622 76.5969 8.07262 78.6346 7.96841C79.7351 7.91082 80.6682 7.84364 81.4336 7.76686C82.4906 7.66265 83.4359 7.61055 84.2695 7.61055C88.3829 7.61603 92.4378 7.6078 96.4341 7.58587C97.4271 7.57764 98.3342 7.86558 99.2986 7.89026C102.045 7.9643 104.737 8.27006 107.377 8.80753C108.336 9.00223 109.314 9.25589 110.311 9.56851C110.534 9.63981 110.854 9.79474 111.271 10.0333C111.565 10.2033 111.895 10.3487 112.26 10.4693Z" fill="#01A2D3"/>
<path d="M112.26 10.4693C112.162 10.4281 112.223 10.3938 112.444 10.3664L115.648 12.6246C114.907 12.6576 114.19 12.6219 113.498 12.5177C112.43 12.3559 111.722 12.2613 111.373 12.2339C110.058 12.1269 108.758 11.8308 107.508 11.7979C104.765 11.7211 102.155 11.839 99.6786 12.1516C98.8286 12.2558 97.5592 12.2819 95.8702 12.2298C94.5926 12.1914 93.3518 12.2736 92.1477 12.4766C90.5105 12.7508 88.8283 13.0072 87.1012 13.2458C86.995 13.2622 86.901 13.3047 86.8192 13.3733C86.7185 13.4583 86.6626 13.557 86.6517 13.6694L86.427 13.3486C86.3452 13.2307 86.2336 13.1745 86.0919 13.18C84.7625 13.2458 83.9058 13.243 83.5217 13.1717C82.8079 13.0346 82.0384 12.5451 81.213 11.7033C81.1149 11.8651 81.1803 11.8486 81.4091 11.6539C81.7442 11.5799 82.0179 11.4565 82.2304 11.2837C82.3367 11.1987 82.4552 11.1384 82.5859 11.1027C85.0894 10.4144 87.3505 9.98935 89.3691 9.82756C90.2626 9.75626 91.1466 9.67537 92.021 9.58488C94.6484 9.30928 97.3167 9.28871 99.9319 9.31339C101.003 9.32162 102.164 9.408 103.417 9.57254C104.611 9.73159 105.807 9.88241 107.005 10.025C107.509 10.0853 108.002 10.1731 108.484 10.2883C109.065 10.4309 109.657 10.4473 110.262 10.3376C110.404 10.3129 110.542 10.3212 110.679 10.3623C111.202 10.5296 111.729 10.5652 112.26 10.4693Z" fill="#5272BC"/>
<path d="M76.0931 11.2134C77.6404 11.2189 79.2027 11.2312 80.78 11.2503C81.194 11.2558 81.4038 11.39 81.4092 11.6529C81.1804 11.8473 81.115 11.8638 81.2131 11.7022C79.4016 11.8035 77.6949 11.6406 76.0931 11.2134Z" fill="#58B2DC"/>
<path d="M115.648 12.6244L116.653 14.3109L115.378 13.5293C115.269 13.4608 115.154 13.4526 115.035 13.5047C114.479 13.7405 113.877 13.8378 113.229 13.7967C112.154 13.7309 111.194 13.41 110.094 13.6075C109.141 13.7803 108.209 13.7295 107.299 13.4553C106.069 13.0851 104.905 13.2373 103.667 13.2373C102.814 13.2345 101.893 13.3484 100.904 13.5787C99.7331 13.8529 98.6312 14.0805 97.5987 14.2615C96.1767 14.5124 94.6403 14.5042 93.157 14.6153C92.1518 14.6866 91.5824 15.0622 91.449 15.7423C90.896 15.4462 89.8962 15.1747 88.4497 14.9279C87.7332 14.8072 87.1339 14.3877 86.6517 13.6692C86.6626 13.5568 86.7185 13.458 86.8193 13.373C86.901 13.3045 86.995 13.262 87.1012 13.2455C88.8283 13.0069 90.5105 12.7505 92.1477 12.4763C93.3518 12.2734 94.5926 12.1911 95.8702 12.2295C97.5592 12.2816 98.8287 12.2556 99.6786 12.1514C102.155 11.8387 104.765 11.7208 107.508 11.7976C108.758 11.8305 110.058 12.1267 111.373 12.2336C111.722 12.2611 112.43 12.3557 113.498 12.5175C114.19 12.6217 114.907 12.6573 115.648 12.6244Z" fill="#14326F"/>
<path d="M116.653 14.3111C117.094 14.6868 117.484 15.1996 117.821 15.8495C117.293 16.0607 116.932 16.1443 116.738 16.1004C114.332 15.5451 111.806 15.8002 109.363 15.796C108.946 15.7933 108.363 15.7083 107.614 15.541C106.922 15.3874 106.32 15.3628 105.808 15.467C102.397 16.1717 99.0002 16.7613 95.6168 17.2357C93.8788 17.5017 92.4895 17.004 91.4489 15.7426C91.5823 15.0625 92.1517 14.6868 93.1569 14.6155C94.6402 14.5044 96.1766 14.5127 97.5986 14.2618C98.6311 14.0808 99.733 13.8532 100.904 13.5789C101.893 13.3486 102.814 13.2348 103.667 13.2375C104.905 13.2375 106.069 13.0853 107.299 13.4555C108.209 13.7298 109.141 13.7805 110.094 13.6077C111.193 13.4103 112.154 13.7311 113.228 13.7969C113.877 13.8381 114.479 13.7407 115.035 13.5049C115.154 13.4528 115.269 13.461 115.378 13.5296L116.653 14.3111Z" fill="#041E4B"/>
<path d="M117.821 15.8495C118.031 16.058 118.184 16.3322 118.279 16.6722C118.328 16.8011 118.317 16.9259 118.246 17.0465C118.178 17.1617 118.079 17.2275 117.948 17.244C115.974 17.5031 114.033 17.137 112.141 17.4496C109.15 17.9405 106.59 18.2792 104.459 18.4656C103.041 18.589 101.963 19.5269 100.614 19.5557C100.157 19.5666 99.7548 19.59 99.4088 19.6256C98.5371 19.6174 97.6872 19.4309 96.859 19.0662C95.9601 18.674 95.546 18.0639 95.6168 17.2357C99.0002 16.7613 102.397 16.1718 105.808 15.467C106.32 15.3628 106.922 15.3875 107.614 15.541C108.363 15.7083 108.946 15.7933 109.363 15.7961C111.806 15.8002 114.332 15.5451 116.738 16.1005C116.932 16.1443 117.293 16.0607 117.821 15.8495Z" fill="#69110D"/>
<path d="M118.279 16.6721L119.783 19.6625L104.169 21.4683C101.9 21.7096 100.313 21.0953 99.409 19.6255C99.755 19.5899 100.157 19.5666 100.614 19.5556C101.963 19.5268 103.042 18.5889 104.46 18.4655C106.59 18.2791 109.151 17.9404 112.142 17.4495C114.034 17.1369 115.975 17.503 117.948 17.2439C118.079 17.2274 118.178 17.1616 118.246 17.0464C118.317 16.9258 118.328 16.801 118.279 16.6721Z" fill="#9F2819"/>
<path d="M119.783 19.6624C118.963 20.4768 118.455 21.1144 118.259 21.5751C117.735 22.8009 117.79 23.9718 118.422 25.0879C118.444 25.1257 118.456 25.1689 118.456 25.2129C118.455 25.2569 118.443 25.2999 118.421 25.3375C118.398 25.3751 118.366 25.4058 118.327 25.4263C118.288 25.4468 118.245 25.4564 118.201 25.454C116.482 25.3662 114.751 25.262 113.008 25.1414C112.474 25.103 111.967 25.1414 111.488 25.2565C110.36 25.5335 109.221 25.8187 108.072 26.1121C108.034 26.1223 107.994 26.1231 107.956 26.1142C107.918 26.1054 107.883 26.0873 107.853 26.0614C107.823 26.0355 107.8 26.0026 107.786 25.9656C107.771 25.9286 107.765 25.8885 107.769 25.8489C107.818 25.3827 107.974 24.9371 108.235 24.512C108.448 24.1665 108.352 24.0129 107.949 24.0513C106.908 24.1473 105.932 23.969 105.019 23.5166C104.289 23.1546 104.006 22.4718 104.169 21.4681L119.783 19.6624Z" fill="#DD2A1B"/>
<path d="M119.95 42.5038L117.907 41.6688C117.379 39.6286 116.342 38.6263 114.797 38.6619C112.708 37.9106 110.663 37.2168 108.664 36.5806C106.664 35.9444 104.801 35.5193 103.074 35.3054C94.5093 34.2483 86.1652 34.0262 77.4657 33.7547C75.7222 33.7026 73.8317 33.719 71.794 33.8041C68.0374 33.9631 64.4061 34.0892 60.9002 34.1825C58.0561 33.2446 55.5213 32.1217 53.2957 30.8136C52.661 30.4407 52.7018 30.1747 53.4183 30.0156L53.8719 29.9169C53.9917 29.8922 54.1061 29.906 54.2151 29.9581C54.888 30.2871 55.6071 30.453 56.3726 30.4558C67.4899 30.4832 79.0089 30.8712 90.9298 31.6199C94.1089 31.8214 97.198 32.4261 100.336 32.7551C101.869 32.9197 103.299 32.422 104.901 32.5248C109.128 32.7963 112.809 33.4448 115.942 34.4704C118.197 35.2081 120.555 35.9992 123.015 36.8438C123.591 37.0413 123.967 37.4649 124.159 38.0367C124.363 38.6455 124.61 38.6606 124.899 38.0819C124.956 37.9695 125.032 37.8735 125.127 37.794C125.239 37.7035 125.362 37.6871 125.495 37.7447C127.522 38.6249 129.241 39.5641 130.652 40.5623C131.42 41.1094 131.608 42.0143 131.122 42.8329C130.006 44.7127 128.245 46.1688 126.084 44.9759C124.118 43.89 122.251 42.9439 120.081 42.1254C120.057 42.1164 120.031 42.1141 120.007 42.1187C119.982 42.1234 119.958 42.1348 119.94 42.1517C119.921 42.1686 119.907 42.1905 119.899 42.2148C119.892 42.2392 119.891 42.2652 119.897 42.2899L119.95 42.5038Z" fill="#AFDBF1"/>
<path d="M114.797 38.662C111.943 38.4564 109.163 38.2507 106.458 38.045C105.55 37.9765 104.639 37.8901 103.724 37.7859C102.155 37.6049 100.399 37.5514 98.4567 37.6255C93.5287 37.8106 88.6498 37.6625 83.4562 37.7201C80.8819 37.7489 78.2626 38.0533 75.6433 38.2384C74.2567 38.3398 72.58 38.5839 70.6132 38.9705C68.8698 39.3161 67.0923 39.6054 65.2807 39.8385C64.1665 39.63 62.9951 39.3613 61.7665 39.0322C59.3802 38.396 56.9407 37.5062 54.4481 36.3627C54.1512 36.2256 53.9741 36.0199 53.9169 35.7457C53.9116 35.7194 53.9115 35.6924 53.9166 35.6662C53.9218 35.6399 53.9321 35.6149 53.9469 35.5927C53.9617 35.5705 53.9808 35.5515 54.003 35.5368C54.0253 35.5221 54.0501 35.512 54.0763 35.5071L60.9003 34.1826C64.4062 34.0893 68.0375 33.9632 71.7941 33.8042C73.8318 33.7191 75.7223 33.7027 77.4658 33.7548C86.1654 34.0263 94.5094 34.2484 103.074 35.3055C104.801 35.5194 106.665 35.9445 108.664 36.5807C110.664 37.2169 112.708 37.9107 114.797 38.662Z" fill="#01A2D3"/>
<path d="M145.861 39.0735C145.869 38.6169 145.947 38.2179 145.645 37.8189C145.544 37.6901 145.564 37.5845 145.706 37.5022C146.877 36.8304 147.829 36.9908 148.562 37.9835C149.641 39.4437 147.941 40.4556 146.731 40.1924C146.48 40.1369 146.255 39.9949 146.096 39.7906C145.937 39.5864 145.854 39.3328 145.861 39.0735Z" fill="white"/>
<path d="M114.797 38.6621C116.342 38.6264 117.379 39.6287 117.907 41.6689C116.763 41.6497 115.605 41.5812 114.434 41.4633C112.141 41.2329 110.025 41.2165 107.786 40.9656C105.191 40.6776 102.453 40.9039 99.8174 40.9203C98.2769 40.9327 96.7691 41.1877 95.1877 41.2329C94.0381 41.2658 92.8845 41.3344 91.7267 41.4386C88.5122 41.7265 85.2555 41.9939 81.9566 42.2407C80.096 42.3805 78.1823 42.7096 76.2154 43.2279C74.2241 43.7517 72.264 44.3563 70.3354 45.0419C68.0607 43.7421 66.3758 42.0076 65.2807 39.8385C67.0923 39.6054 68.8698 39.3161 70.6132 38.9706C72.58 38.5839 74.2568 38.3399 75.6433 38.2384C78.2626 38.0533 80.8819 37.7489 83.4562 37.7201C88.6498 37.6625 93.5287 37.8106 98.4567 37.6255C100.399 37.5515 102.155 37.6049 103.724 37.7859C104.639 37.8901 105.55 37.9765 106.458 38.0451C109.163 38.2507 111.943 38.4564 114.797 38.6621Z" fill="#58B2DC"/>
<path d="M117.907 41.6689L119.95 42.5039L121.401 43.269C118.745 43.1731 116.12 43.0771 113.527 42.9811C109.003 42.8125 104.329 42.8947 99.7523 42.8618C97.1153 42.8454 95.158 42.9496 93.8804 43.1744C89.9086 43.8737 86.7254 45.4039 83.2439 47.0698C82.661 47.1274 82.0099 47.1479 81.2907 47.1315C78.3514 47.0684 75.4747 46.7421 72.6606 46.1525L70.3356 45.0419C72.2643 44.3563 74.2243 43.7517 76.2156 43.2279C78.1825 42.7096 80.0962 42.3805 81.9568 42.2407C85.2557 41.9939 88.5124 41.7265 91.7269 41.4386C92.8847 41.3344 94.0384 41.2658 95.1879 41.2329C96.7693 41.1877 98.2771 40.9326 99.8176 40.9203C102.453 40.9039 105.191 40.6776 107.786 40.9656C110.025 41.2165 112.142 41.2329 114.434 41.4633C115.605 41.5812 116.763 41.6497 117.907 41.6689Z" fill="#5272BC"/>
<path d="M152.505 42.9401C152.167 42.9648 152.068 42.8222 152.207 42.5124C152.433 41.9996 152.745 41.6321 153.143 41.41C153.336 41.3003 153.502 41.3305 153.641 41.5005L154.949 43.0718C155.213 43.3899 155.156 43.4653 154.777 43.298C154.093 42.9964 153.336 42.8771 152.505 42.9401Z" fill="#2349A3"/>
<path d="M121.401 43.269L124.016 44.4454C123.992 44.9226 123.813 45.1584 123.481 45.1529C119.354 45.0871 115.165 45.0049 110.916 44.9061C110.229 44.8897 109.295 44.9994 108.113 45.2352C105.232 45.8111 102.114 45.9468 99.3639 46.3252C96.5962 46.7037 94.3011 47.2261 92.4786 47.8924C90.1631 48.7398 87.8299 48.9482 85.4789 48.5177C84.6372 48.3641 83.8921 47.8815 83.2438 47.0698C86.7252 45.4038 89.9084 43.8737 93.8802 43.1744C95.1578 42.9495 97.1151 42.8453 99.7521 42.8618C104.329 42.8947 109.003 42.8124 113.527 42.9811C116.12 43.0771 118.745 43.173 121.401 43.269Z" fill="#14326F"/>
<path d="M151.561 44.2061C151.556 44.2061 151.551 44.205 151.546 44.2029C151.541 44.2009 151.536 44.1979 151.533 44.194C151.529 44.1902 151.526 44.1857 151.524 44.1807C151.522 44.1757 151.521 44.1704 151.521 44.165V44.1403C151.522 44.0764 151.56 44.0145 151.632 43.9579C151.705 43.9014 151.811 43.8515 151.944 43.811C152.076 43.7706 152.234 43.7403 152.407 43.7221C152.58 43.7039 152.764 43.6981 152.951 43.7049L153.082 43.7131C153.455 43.7267 153.812 43.7905 154.074 43.8906C154.336 43.9907 154.482 44.1189 154.479 44.2471V44.2718C154.479 44.2775 154.478 44.2832 154.476 44.2885C154.473 44.2938 154.47 44.2985 154.466 44.3024C154.461 44.3063 154.456 44.3092 154.451 44.311C154.446 44.3128 154.44 44.3134 154.434 44.3129L151.561 44.2061Z" fill="#2349A3"/>
<path d="M124.016 44.4453C125.679 45.3503 126.999 46.5184 129.108 46.4897C129.255 46.4869 129.387 46.5308 129.504 46.6213C129.716 46.7886 129.876 47.0038 129.982 47.2671C130.011 47.3377 130.064 47.3957 130.131 47.4311C130.198 47.4664 130.276 47.4768 130.35 47.4604L130.811 47.3576C131.299 47.2506 131.438 47.4248 131.228 47.88L131.016 48.3407C130.885 48.6286 130.971 48.7273 131.273 48.6368L132.041 48.4106C132.088 48.3973 132.137 48.395 132.184 48.4038C132.232 48.4126 132.277 48.4323 132.315 48.4613C132.354 48.4903 132.385 48.5279 132.407 48.5712C132.429 48.6145 132.441 48.6623 132.442 48.7109L132.454 49.8667C132.454 50.0258 132.52 50.1505 132.65 50.241C132.833 50.3672 132.957 50.5262 133.022 50.7182C133.352 51.6451 133.525 52.5994 133.541 53.5811C133.544 53.7182 133.602 53.8251 133.717 53.9019C133.82 53.9732 133.942 53.9965 134.08 53.9719C134.153 53.9589 134.228 53.9631 134.299 53.9842C134.371 54.0054 134.436 54.0429 134.49 54.0938C134.545 54.1447 134.587 54.2077 134.614 54.2779C134.641 54.348 134.651 54.4235 134.644 54.4984C134.563 55.3951 134.339 56.2383 133.974 57.0281C133.958 57.0632 133.951 57.102 133.955 57.1405C133.959 57.1791 133.972 57.2159 133.995 57.2473C134.017 57.2787 134.048 57.3036 134.083 57.3192C134.118 57.3349 134.157 57.3409 134.195 57.3366L135.821 57.1515C135.933 57.138 136.046 57.1679 136.137 57.2351C136.228 57.3023 136.291 57.4018 136.312 57.5135C136.434 58.1839 136.414 58.7927 136.643 59.4509C138.879 65.9884 141.106 72.4491 143.323 78.833C143.337 78.8717 143.342 78.9132 143.336 78.954C143.331 78.9948 143.315 79.0336 143.292 79.0672C143.268 79.1007 143.237 79.128 143.2 79.1466C143.164 79.1653 143.123 79.1748 143.082 79.1744L135.31 79.1867C135.147 79.1867 135.048 79.1045 135.012 78.94L134.514 76.6611C134.473 76.4747 134.358 76.3814 134.17 76.3814L128.94 76.3773C128.752 76.3773 128.635 76.4706 128.589 76.657L128.078 78.8083C128.053 78.9116 127.994 79.0036 127.911 79.0692C127.828 79.1349 127.726 79.1705 127.62 79.1703L120.097 79.1909C120.052 79.1906 120.007 79.1795 119.966 79.1585C119.926 79.1375 119.891 79.1073 119.865 79.0702C119.838 79.0332 119.821 78.9905 119.815 78.9456C119.808 78.9008 119.813 78.8551 119.828 78.8124L125.969 61.38C126.046 61.2511 126.17 61.1826 126.341 61.1744C127.363 61.1113 128.422 61.0756 129.52 61.0674C129.549 61.0668 129.577 61.0587 129.602 61.0439C129.627 61.0291 129.648 61.008 129.662 60.9827C129.677 60.9574 129.684 60.9288 129.685 60.8997C129.685 60.8706 129.677 60.8419 129.663 60.8165C128.546 58.7571 128.707 56.7895 130.145 54.9138L130.803 53.9924C130.895 53.8635 130.943 53.709 130.942 53.5514C130.94 53.3938 130.889 53.2414 130.795 53.1163L129.369 51.1912C128.947 50.2452 128.597 49.7228 128.319 49.624C127.547 48.3653 126.541 47.1889 125.038 47.1972C120.055 47.2355 115.209 47.3041 110.499 47.4028C109.423 47.4248 108.37 47.5742 107.34 47.8512C105.27 48.4051 103.171 48.8096 101.043 49.0646C99.0697 49.2991 97.2677 49.9572 95.5311 50.8663C95.5041 50.8802 95.4813 50.9012 95.4649 50.9269C95.4486 50.9526 95.4393 50.9823 95.4381 51.0128C95.4368 51.0433 95.4436 51.0736 95.4578 51.1006C95.472 51.1277 95.493 51.1504 95.5188 51.1665L99.5846 53.6921C92.0741 53.1204 85.4013 52.6597 78.2259 53.7086C72.7041 54.5148 67.2422 55.7228 61.8402 57.3325C61.8358 57.333 61.8319 57.3353 61.8292 57.3387C61.8265 57.3422 61.8253 57.3466 61.8259 57.351C61.8264 57.3553 61.8287 57.3593 61.8321 57.362C61.8356 57.3647 61.8399 57.3659 61.8443 57.3654C63.2091 57.338 65.0915 57.2996 67.4914 57.2502C67.5732 57.2475 67.6481 57.2666 67.7162 57.3078C67.7543 57.3297 67.7884 57.3544 67.8183 57.3818C67.8701 57.4285 67.9082 57.486 67.9327 57.5546L75.3084 78.977C75.3154 78.9991 75.3172 79.0226 75.3136 79.0455C75.3099 79.0684 75.301 79.0902 75.2875 79.109C75.274 79.1278 75.2562 79.1432 75.2357 79.1538C75.2152 79.1645 75.1925 79.1701 75.1694 79.1703L67.3198 79.1826C67.2352 79.1826 67.1531 79.1533 67.087 79.0994C67.0209 79.0456 66.9747 78.9705 66.9561 78.8865L66.4413 76.5953C66.4086 76.45 66.3173 76.3773 66.1675 76.3773L60.8799 76.3855C60.6865 76.3855 60.5667 76.4815 60.5203 76.6735L60.0014 78.8659C59.9813 78.9528 59.9325 79.0304 59.8629 79.0863C59.7933 79.1422 59.7068 79.1732 59.6173 79.1744L51.8902 79.1867C51.8652 79.1869 51.8404 79.181 51.8181 79.1695C51.7958 79.158 51.7766 79.1412 51.7622 79.1206C51.7477 79.1 51.7385 79.0761 51.7351 79.0511C51.7318 79.0261 51.7346 79.0007 51.7431 78.977L58.8818 58.3937C58.8892 58.3741 58.8908 58.3529 58.8864 58.3325C58.8819 58.3121 58.8717 58.2933 58.8567 58.2782C58.8418 58.2632 58.8228 58.2526 58.802 58.2475C58.7811 58.2425 58.7592 58.2433 58.7387 58.2497C52.9908 60.1254 47.2755 62.2767 41.593 64.7036C40.9555 64.9751 40.3562 65.2781 39.795 65.6127C38.9247 66.1392 37.9399 66.2256 37.0123 66.6451C26.2533 71.5359 15.478 76.546 4.43699 80.9843C4.39068 81.0035 4.35254 81.0048 4.32257 80.9884C4.27082 80.9582 4.27218 80.9308 4.32666 80.9061L57.1206 54.5066C57.6137 54.2598 57.5892 54.1858 57.0471 54.2845C40.8302 57.2488 24.5248 60.1666 8.13093 63.0377C4.97364 63.5916 2.29172 64.0921 0.0851654 64.5391C0.0443032 64.5473 0.0170618 64.5309 0.00344103 64.4897V64.4856C-0.00745556 64.4445 0.00752725 64.417 0.0483894 64.4033C0.36439 64.2936 0.683115 64.1963 1.00456 64.1113C24.8027 57.8782 48.688 51.8919 72.6605 46.1524C75.4745 46.7419 78.3512 47.0683 81.2906 47.1313C82.0098 47.1478 82.6608 47.1272 83.2438 47.0696C83.8922 47.8813 84.6372 48.364 85.479 48.5175C87.8299 48.9481 90.1631 48.7397 92.4787 47.8923C94.3011 47.2259 96.5962 46.7035 99.3639 46.3251C102.114 45.9467 105.232 45.8109 108.113 45.2351C109.295 44.9992 110.229 44.8896 110.916 44.906C115.165 45.0047 119.354 45.087 123.481 45.1528C123.813 45.1583 123.992 44.9225 124.016 44.4453ZM61.9015 71.0629C61.8972 71.0835 61.8975 71.1048 61.9026 71.1253C61.9076 71.1457 61.9171 71.1648 61.9305 71.181C61.9438 71.1972 61.9607 71.2102 61.9797 71.2189C61.9987 71.2277 62.0195 71.232 62.0404 71.2315L64.9212 71.2233C64.9418 71.2231 64.9621 71.2184 64.9806 71.2093C64.9991 71.2003 65.0154 71.1873 65.0283 71.1711C65.0412 71.155 65.0504 71.1362 65.0552 71.116C65.06 71.0959 65.0603 71.0749 65.056 71.0546L63.5891 64.1977C63.5816 64.1673 63.5643 64.1404 63.5398 64.1212C63.5154 64.1019 63.4853 64.0915 63.4542 64.0915C63.4232 64.0915 63.3931 64.1019 63.3686 64.1212C63.3442 64.1404 63.3269 64.1673 63.3194 64.1977L61.9015 71.0629ZM129.957 71.0382C129.953 71.0588 129.954 71.0801 129.959 71.1006C129.964 71.121 129.973 71.1401 129.986 71.1563C130 71.1725 130.017 71.1855 130.036 71.1942C130.055 71.203 130.075 71.2073 130.096 71.2068H132.916C132.937 71.2073 132.958 71.203 132.977 71.1942C132.996 71.1855 133.012 71.1725 133.026 71.1563C133.039 71.1401 133.049 71.121 133.054 71.1006C133.059 71.0801 133.059 71.0588 133.055 71.0382L131.641 64.173C131.634 64.1427 131.616 64.1157 131.592 64.0965C131.567 64.0773 131.537 64.0668 131.506 64.0668C131.475 64.0668 131.445 64.0773 131.421 64.0965C131.396 64.1157 131.379 64.1427 131.371 64.173L129.957 71.0382Z" fill="#2349A3"/>
<path d="M128.319 49.6242C124.058 49.7065 119.852 49.7791 115.701 49.8422C114.739 49.8587 113.815 49.9368 112.93 50.0767C112.007 50.222 111.08 50.3372 110.151 50.4222C108.885 50.5415 107.581 50.85 106.294 51.0474C105.896 51.1105 105.499 51.1557 105.101 51.1832C104.594 51.2161 104.112 51.36 103.654 51.6151C102.854 52.062 101.993 52.5282 101.072 53.0136C100.966 53.0712 100.896 53.1589 100.864 53.2769C100.828 53.4222 100.824 53.5785 100.851 53.7458L99.5845 53.6923L95.5187 51.1667C95.493 51.1505 95.4719 51.1278 95.4578 51.1008C95.4436 51.0738 95.4368 51.0435 95.438 51.013C95.4393 50.9824 95.4485 50.9528 95.4649 50.9271C95.4812 50.9013 95.504 50.8804 95.531 50.8664C97.2677 49.9574 99.0697 49.2992 101.043 49.0648C103.171 48.8097 105.27 48.4053 107.34 47.8513C108.37 47.5744 109.423 47.4249 110.499 47.403C115.209 47.3043 120.055 47.2357 125.038 47.1973C126.541 47.1891 127.547 48.3655 128.319 49.6242Z" fill="#041E4B"/>
<path d="M128.319 49.6245C128.597 49.7232 128.947 50.2456 129.369 51.1917C127.086 51.5976 124.817 51.9115 122.562 52.1337C121.189 52.268 119.825 52.3709 118.471 52.4422C117.768 52.4833 117.135 52.7301 116.42 52.7589C115.96 52.7781 115.483 52.8562 114.99 52.9934C112.317 53.7365 109.671 54.4892 107.05 55.2516C104.765 55.4956 102.698 54.9938 100.851 53.7461C100.824 53.5788 100.828 53.4225 100.864 53.2772C100.896 53.1593 100.966 53.0715 101.072 53.0139C101.993 52.5286 102.854 52.0624 103.655 51.6154C104.112 51.3604 104.594 51.2164 105.101 51.1835C105.499 51.1561 105.897 51.1108 106.294 51.0477C107.581 50.8503 108.885 50.5418 110.152 50.4225C111.081 50.3375 112.007 50.2223 112.93 50.077C113.816 49.9371 114.739 49.859 115.701 49.8425C119.852 49.7795 124.058 49.7068 128.319 49.6245Z" fill="#69110D"/>
<path d="M129.369 51.1914L130.795 53.1165C130.889 53.2416 130.941 53.394 130.942 53.5516C130.944 53.7092 130.895 53.8637 130.804 53.9926L130.146 54.914L130.481 54.1325C130.557 53.9542 130.5 53.8774 130.309 53.9021C129.748 53.9707 128.946 54.0694 127.902 54.1983C124.625 54.5986 121.619 55.0388 118.884 55.5187C117.081 55.8368 114.619 56.6073 111.5 57.8304L109.412 57.3944C108.59 57.1805 107.813 56.8747 107.083 56.4771C106.734 56.2879 106.723 55.8793 107.05 55.2513C109.671 54.4889 112.318 53.7362 114.99 52.9931C115.483 52.8559 115.96 52.7778 116.42 52.7586C117.135 52.7298 117.769 52.483 118.471 52.4419C119.825 52.3706 121.189 52.2677 122.562 52.1334C124.817 51.9112 127.086 51.5973 129.369 51.1914Z" fill="#9F2819"/>
<path d="M130.145 54.9139C128.707 56.7896 128.546 58.7571 129.663 60.8165C129.677 60.842 129.685 60.8706 129.685 60.8998C129.684 60.9289 129.677 60.9575 129.662 60.9828C129.648 61.008 129.627 61.0291 129.602 61.0439C129.578 61.0588 129.549 61.0669 129.52 61.0674C128.422 61.0757 127.363 61.1113 126.341 61.1744C126.17 61.1826 126.046 61.2512 125.969 61.3801C125.994 61.2759 125.976 61.221 125.916 61.2155C123.59 60.9961 121.25 61.2759 118.896 62.0546C117.866 61.7859 117.326 61.2662 117.274 60.4957C117.266 60.3641 117.195 60.2969 117.061 60.2941C114.855 60.2653 112.542 60.29 111.5 57.8302C114.619 56.6072 117.08 55.8366 118.884 55.5185C121.619 55.0386 124.625 54.5985 127.902 54.1981C128.945 54.0692 129.748 53.9705 130.309 53.902C130.5 53.8773 130.557 53.9541 130.481 54.1323L130.145 54.9139Z" fill="#DD2A1B"/>
<path d="M191.091 68.7594C191.002 74.1438 186.576 78.9276 181.395 79.5899C177.132 80.1328 173.593 78.7878 170.779 75.5547C168.47 72.9015 167.669 69.2036 168.429 65.7731C170.452 56.6455 182.249 53.5975 188.284 60.7424C188.894 61.4637 189.497 62.3302 190.09 63.3421C190.526 64.0825 190.797 64.8544 190.904 65.6579C191.045 66.7438 191.108 67.7777 191.091 68.7594ZM179.631 72.4943C180.603 72.496 181.536 72.0608 182.225 71.2845C182.913 70.5081 183.301 69.4542 183.303 68.3545C183.304 67.81 183.21 67.2707 183.027 66.7673C182.844 66.2639 182.574 65.8064 182.235 65.4208C181.895 65.0351 181.491 64.729 181.047 64.5199C180.603 64.3107 180.126 64.2026 179.645 64.2018C178.673 64.2001 177.74 64.6353 177.051 65.4116C176.362 66.188 175.974 67.2419 175.972 68.3416C175.972 68.8861 176.065 69.4254 176.249 69.9288C176.432 70.4322 176.701 70.8897 177.041 71.2754C177.381 71.661 177.784 71.9671 178.229 72.1762C178.673 72.3854 179.149 72.4935 179.631 72.4943Z" fill="#2349A3"/>
<path d="M109.412 57.3944L111.5 57.8304C112.542 60.2902 114.855 60.2655 117.061 60.2943C117.195 60.2971 117.266 60.3642 117.274 60.4959C117.326 61.2664 117.866 61.7861 118.896 62.0548C119.425 63.8071 119.487 65.5361 119.084 67.2418C118.883 68.0864 118.421 68.9241 117.699 69.755C115.125 72.7126 112.379 72.7167 108.73 72.8318C108.58 72.8346 108.505 72.9127 108.505 73.0663L108.521 78.9114C108.521 79.0869 108.434 79.1746 108.26 79.1746L101.019 79.1952C100.869 79.1952 100.794 79.1212 100.794 78.9731L100.798 57.3821C100.798 57.3675 100.801 57.353 100.807 57.3396C100.812 57.3261 100.82 57.3138 100.831 57.3035C100.841 57.2932 100.853 57.285 100.866 57.2795C100.88 57.2739 100.894 57.271 100.909 57.271L109.412 57.3944ZM108.546 63.6344L108.554 66.8346C108.554 66.8913 108.576 66.9457 108.616 66.9858C108.656 67.0259 108.71 67.0485 108.766 67.0485L110.397 67.0443C110.825 67.0432 111.235 66.8823 111.537 66.5968C111.839 66.3114 112.008 65.9249 112.007 65.5224V64.9301C112.006 64.7308 111.964 64.5335 111.882 64.3495C111.801 64.1656 111.681 63.9985 111.531 63.858C111.381 63.7174 111.203 63.6061 111.007 63.5303C110.811 63.4545 110.601 63.4158 110.389 63.4164L108.758 63.4205C108.702 63.4205 108.648 63.443 108.608 63.4831C108.568 63.5232 108.546 63.5776 108.546 63.6344Z" fill="#2349A3"/>
<path d="M84.4002 66.2875L89.0054 57.3574C89.016 57.3362 89.0324 57.3183 89.0526 57.306C89.0729 57.2936 89.0961 57.2872 89.1198 57.2875L97.5864 57.271C97.609 57.2707 97.6313 57.2764 97.6509 57.2877C97.6706 57.2989 97.6868 57.3153 97.6981 57.335C97.7094 57.3547 97.7152 57.3771 97.7149 57.3999C97.7147 57.4226 97.7084 57.4449 97.6967 57.4643L91.3672 68.0521C91.3551 68.0729 91.3491 68.0966 91.3498 68.1206C91.3505 68.1446 91.358 68.1679 91.3713 68.1879L98.5753 78.9731C98.5878 78.9924 98.595 79.0147 98.5959 79.0377C98.5969 79.0607 98.5916 79.0835 98.5807 79.1038C98.5699 79.124 98.5537 79.1409 98.534 79.1527C98.5144 79.1644 98.4919 79.1706 98.469 79.1705L89.4344 79.1993C89.4119 79.1992 89.3898 79.1931 89.3704 79.1815C89.351 79.1699 89.335 79.1534 89.3241 79.1335L84.4002 70.405C84.3865 70.3805 84.3651 70.3613 84.3394 70.3503C84.3137 70.3393 84.2852 70.3371 84.2581 70.3442C84.2311 70.3512 84.2072 70.367 84.19 70.3892C84.1728 70.4113 84.1634 70.4386 84.1632 70.4667L84.1918 79.0471C84.1918 79.081 84.1785 79.1134 84.1547 79.1373C84.1309 79.1612 84.0987 79.1747 84.0651 79.1747L76.7181 79.1911C76.6845 79.1911 76.6523 79.1777 76.6285 79.1538C76.6048 79.1299 76.5914 79.0974 76.5914 79.0636V57.4026C76.5914 57.3688 76.6048 57.3364 76.6285 57.3125C76.6523 57.2886 76.6845 57.2751 76.7181 57.2751H84.061C84.0946 57.2751 84.1269 57.2886 84.1506 57.3125C84.1744 57.3364 84.1877 57.3688 84.1877 57.4026L84.1591 66.2258C84.1574 66.2554 84.166 66.2846 84.1833 66.3085C84.2007 66.3324 84.2258 66.3495 84.2544 66.3568C84.2829 66.3641 84.313 66.3612 84.3396 66.3485C84.3663 66.3359 84.3877 66.3143 84.4002 66.2875Z" fill="#2349A3"/>
<path d="M152.215 70.4749L152.268 79.039C152.268 79.0739 152.255 79.1073 152.23 79.132C152.206 79.1567 152.172 79.1706 152.138 79.1706L144.77 79.1829C144.736 79.1829 144.702 79.1691 144.678 79.1444C144.653 79.1197 144.639 79.0862 144.639 79.0513V57.4027C144.639 57.3678 144.653 57.3343 144.678 57.3096C144.702 57.2849 144.736 57.271 144.77 57.271H152.121C152.156 57.271 152.189 57.2849 152.214 57.3096C152.238 57.3343 152.252 57.3678 152.252 57.4027L152.236 66.1888C152.235 66.219 152.245 66.2483 152.264 66.272C152.282 66.2957 152.308 66.3123 152.337 66.3191C152.366 66.3258 152.397 66.3223 152.424 66.3091C152.451 66.2958 152.472 66.2737 152.485 66.2464L157.041 57.3492C157.052 57.3283 157.069 57.3107 157.089 57.2984C157.109 57.2861 157.132 57.2795 157.156 57.2793L165.639 57.271C165.662 57.2704 165.686 57.2762 165.706 57.2879C165.727 57.2995 165.744 57.3166 165.756 57.3373C165.767 57.358 165.773 57.3815 165.773 57.4054C165.772 57.4292 165.766 57.4524 165.753 57.4726L159.411 68.0522C159.398 68.0731 159.391 68.0974 159.391 68.1221C159.391 68.1468 159.398 68.1711 159.411 68.192L166.623 78.9567C166.637 78.9766 166.645 78.9999 166.646 79.024C166.647 79.0481 166.642 79.0721 166.63 79.0933C166.619 79.1145 166.602 79.1322 166.581 79.1444C166.561 79.1565 166.537 79.1628 166.513 79.1624L157.482 79.1953C157.459 79.1955 157.437 79.1895 157.416 79.1779C157.396 79.1664 157.38 79.1496 157.368 79.1294L152.46 70.4091C152.446 70.3834 152.424 70.3632 152.397 70.3517C152.37 70.3402 152.341 70.3381 152.312 70.3456C152.284 70.3532 152.259 70.37 152.242 70.3935C152.224 70.4169 152.215 70.4456 152.215 70.4749Z" fill="#2349A3"/>
<path d="M200.604 67.4351C200.353 71.1646 199.995 75.0325 199.529 79.0389C199.525 79.0785 199.507 79.1152 199.477 79.1418C199.448 79.1684 199.41 79.1831 199.37 79.1829L192.223 79.1788C192.027 79.1788 191.945 79.0814 191.978 78.8867L195.541 57.596C195.577 57.3848 195.701 57.2792 195.913 57.2792H203.272C203.458 57.2792 203.575 57.3697 203.624 57.5507L206.394 67.6449C206.533 68.1522 206.673 68.1522 206.815 67.6449L209.61 57.5301C209.656 57.3601 209.767 57.2751 209.941 57.2751L217.398 57.271C217.554 57.271 217.644 57.3492 217.668 57.5055L220.998 79.0101C221.001 79.0302 221 79.0507 220.995 79.0701C220.989 79.0896 220.98 79.1076 220.967 79.1229C220.954 79.1381 220.938 79.1503 220.92 79.1585C220.902 79.1667 220.883 79.1709 220.863 79.1705L213.68 79.1952C213.522 79.1952 213.435 79.1157 213.418 78.9566L212.225 67.324C212.184 66.9182 212.116 66.9141 212.021 67.3117C211.116 71.1426 210.05 75.038 208.821 78.9978C208.783 79.1157 208.703 79.1746 208.58 79.1746L204.388 79.1829C204.235 79.1829 204.137 79.1102 204.094 78.9649C202.873 74.931 201.809 71.0782 200.902 67.4063C200.747 66.7838 200.648 66.7934 200.604 67.4351Z" fill="#2349A3"/>
<path d="M108.546 63.6345C108.546 63.5778 108.568 63.5234 108.608 63.4833C108.648 63.4432 108.702 63.4206 108.758 63.4206L110.389 63.4165C110.601 63.416 110.811 63.4547 111.007 63.5305C111.203 63.6062 111.381 63.7176 111.531 63.8581C111.682 63.9987 111.801 64.1657 111.882 64.3497C111.964 64.5336 112.006 64.7309 112.007 64.9302V65.5225C112.008 65.9251 111.839 66.3116 111.537 66.597C111.235 66.8824 110.825 67.0434 110.397 67.0445L108.766 67.0486C108.71 67.0486 108.656 67.0261 108.616 66.986C108.576 66.9458 108.554 66.8914 108.554 66.8347L108.546 63.6345Z" fill="white"/>
<path d="M61.9017 71.0632L63.3196 64.198C63.3271 64.1677 63.3444 64.1407 63.3688 64.1215C63.3933 64.1022 63.4234 64.0918 63.4544 64.0918C63.4855 64.0918 63.5156 64.1022 63.54 64.1215C63.5645 64.1407 63.5818 64.1677 63.5893 64.198L65.0562 71.0549C65.0605 71.0752 65.0602 71.0962 65.0554 71.1163C65.0506 71.1365 65.0414 71.1553 65.0285 71.1714C65.0156 71.1876 64.9993 71.2006 64.9808 71.2096C64.9622 71.2187 64.942 71.2234 64.9214 71.2236L62.0406 71.2318C62.0197 71.2323 61.9989 71.228 61.9799 71.2192C61.9608 71.2105 61.944 71.1975 61.9307 71.1813C61.9173 71.1651 61.9078 71.146 61.9027 71.1256C61.8977 71.1051 61.8974 71.0838 61.9017 71.0632Z" fill="white"/>
<path d="M129.957 71.0383L131.371 64.1731C131.379 64.1428 131.396 64.1158 131.42 64.0966C131.445 64.0774 131.475 64.0669 131.506 64.0669C131.537 64.0669 131.567 64.0774 131.592 64.0966C131.616 64.1158 131.633 64.1428 131.641 64.1731L133.055 71.0383C133.059 71.0589 133.059 71.0802 133.054 71.1007C133.049 71.1211 133.039 71.1402 133.026 71.1564C133.012 71.1726 132.995 71.1856 132.976 71.1943C132.957 71.2031 132.937 71.2074 132.916 71.2069H130.096C130.075 71.2074 130.055 71.2031 130.036 71.1943C130.017 71.1856 130 71.1726 129.986 71.1564C129.973 71.1402 129.963 71.1211 129.958 71.1007C129.953 71.0802 129.953 71.0589 129.957 71.0383Z" fill="white"/>
<path d="M175.972 68.3419C175.968 70.6318 177.606 72.491 179.63 72.4946C181.655 72.4981 183.299 70.6447 183.303 68.3548C183.307 66.0648 181.669 64.2056 179.645 64.2021C177.621 64.1985 175.976 66.052 175.972 68.3419Z" fill="white"/>
</svg>
