<svg width="38" height="38" viewBox="0 0 38 38" fill="none" xmlns="http://www.w3.org/2000/svg">
<path d="M21.8663 35.625C21.668 35.625 21.4744 35.5253 21.3616 35.3436C21.2452 35.1583 21.1134 34.9885 20.9697 34.8341C20.7465 34.5943 20.7596 34.2178 20.9994 33.9946C21.2405 33.7713 21.6157 33.7844 21.839 34.0255C22.0432 34.2451 22.2214 34.4779 22.3698 34.7178C22.5432 34.9968 22.4565 35.3626 22.1774 35.5348C22.0824 35.5965 21.9732 35.625 21.8663 35.625Z" fill="#214AA3"/>
<path d="M15.634 32.7738C15.5782 32.7738 15.52 32.7655 15.463 32.7489C10.1442 31.1552 6.42969 25.9896 6.42969 20.1863C6.42969 15.5883 8.64081 11.2896 12.2009 8.96918C12.4764 8.79106 12.8434 8.86706 13.0227 9.14256C13.2008 9.41687 13.1236 9.78499 12.8493 9.96431C9.6205 12.0686 7.616 15.9849 7.616 20.1863C7.616 25.4695 10.9826 30.1672 15.8038 31.6112C16.1185 31.7051 16.2966 32.0364 16.2016 32.3511C16.1256 32.6076 15.8905 32.7738 15.634 32.7738Z" fill="#214AA3"/>
<path d="M10.4852 34.9635C8.78468 34.9635 6.88112 33.7475 6.79918 33.6965C6.66143 33.6062 6.56643 33.4637 6.53674 33.301C6.50706 33.1384 6.54862 32.9709 6.64837 32.8391C6.71962 32.7465 8.39518 30.5615 10.2168 30.2409C12.8816 29.767 14.0227 31.6896 14.0655 31.762C14.1356 31.8796 14.1617 32.0162 14.1403 32.1515C14.1272 32.2454 13.7698 34.4387 11.0421 34.9184C10.8616 34.9481 10.6752 34.9635 10.4852 34.9635ZM8.04012 33.0339C8.65405 33.3509 9.63493 33.776 10.4864 33.776C10.6063 33.776 10.7239 33.7677 10.8379 33.7475C12.2878 33.4922 12.7652 32.5992 12.9101 32.1872C12.6156 31.8452 11.8223 31.16 10.4246 31.4082C9.57199 31.559 8.62674 32.4009 8.04012 33.0339Z" fill="#214AA3"/>
<path d="M6.17726 28.855C5.92076 28.855 5.64526 28.8313 5.34838 28.7802C3.52557 28.4584 1.85001 26.2746 1.77876 26.182C1.67901 26.0502 1.63863 25.8827 1.66713 25.72C1.69563 25.5574 1.79063 25.4137 1.93076 25.3246C2.01982 25.2676 4.37463 23.7904 6.17251 24.1039C8.81351 24.5682 9.24932 26.7567 9.26595 26.8494C9.29088 26.9824 9.26951 27.1213 9.2042 27.24C9.17095 27.3054 8.30645 28.855 6.17726 28.855ZM3.16932 25.9837C3.75476 26.6166 4.7012 27.4597 5.55501 27.6105C6.98001 27.8575 7.7507 27.1925 8.03451 26.8505C7.8742 26.4302 7.37188 25.5182 5.96707 25.2712C5.08713 25.118 3.92576 25.5965 3.16932 25.9837Z" fill="#214AA3"/>
<path d="M5.51018 21.6861C4.62075 21.6861 3.7705 21.3512 2.98437 20.6922C1.5665 19.5023 1.20787 16.7734 1.19243 16.6582C1.17106 16.4944 1.21975 16.3293 1.32662 16.2022C1.43231 16.0764 1.58787 15.9992 1.75175 15.9909C1.75175 15.9909 1.86337 15.9849 2.05337 15.9849C2.86918 15.9849 4.88793 16.0894 6.03625 17.0549C8.09181 18.7779 7.37575 20.8905 7.34487 20.9795C7.29975 21.1078 7.21187 21.2159 7.0955 21.2871C7.029 21.3275 6.41862 21.6861 5.51018 21.6861ZM2.49512 17.1831C2.6875 18.0239 3.08412 19.2256 3.74793 19.7825C4.31556 20.2575 4.90812 20.4986 5.51018 20.4986C5.83675 20.4986 6.10512 20.4262 6.27612 20.3632C6.34856 19.9179 6.36637 18.88 5.27387 17.9633C4.56968 17.3719 3.2575 17.2199 2.49512 17.1831Z" fill="#214AA3"/>
<path d="M8.06654 14.8497C7.55116 14.8497 5.79129 14.6846 4.80329 12.5626C4.02192 10.8858 4.8496 8.25907 4.88404 8.14864C4.9351 7.9907 5.0491 7.86126 5.19991 7.79239C5.34835 7.72114 5.52054 7.71757 5.67491 7.78051C5.78298 7.82445 8.32542 8.87776 9.10798 10.5545C10.242 12.9853 8.70066 14.5979 8.63416 14.6656C8.54154 14.7606 8.41092 14.8224 8.2791 14.839C8.2791 14.8402 8.20191 14.8497 8.06654 14.8497ZM5.84354 9.17345C5.66185 10.0178 5.5146 11.2765 5.87916 12.0614C6.48716 13.3677 7.42885 13.6206 7.92404 13.6574C8.17816 13.2858 8.63535 12.3512 8.0321 11.058C7.66516 10.2719 6.6071 9.57601 5.84354 9.17345Z" fill="#214AA3"/>
<path d="M12.3652 10.0937C12.3011 10.0937 12.2394 10.0842 12.1776 10.0629C12.0885 10.0332 9.99023 9.30168 9.99023 6.53124C9.99023 4.67993 11.8499 2.65049 11.9294 2.56499C12.1539 2.32274 12.5766 2.32274 12.801 2.56499C12.8794 2.65049 14.7402 4.67993 14.7402 6.53124C14.7402 9.21261 12.6621 10.0225 12.5742 10.0557C12.5065 10.0807 12.4365 10.0937 12.3652 10.0937ZM12.3652 3.89855C11.8451 4.58611 11.1777 5.66436 11.1777 6.53124C11.1777 8.00255 11.9734 8.62718 12.3545 8.84211C12.7429 8.61055 13.5527 7.95743 13.5527 6.53124C13.5527 5.6608 12.8877 4.58493 12.3652 3.89855Z" fill="#214AA3"/>
<path d="M16.1332 35.6238C16.0251 35.6238 15.9159 35.5953 15.8185 35.5335C15.5406 35.3602 15.4551 34.9932 15.6297 34.7153C16.9359 32.6206 19.7764 32.0743 20.616 31.9568C26.183 31.1707 30.3832 26.1107 30.3832 20.1863C30.3832 15.9849 28.3787 12.0685 25.1499 9.96428C24.8767 9.78496 24.7984 9.41803 24.9765 9.14253C25.1558 8.86821 25.5227 8.79221 25.7982 8.96915C29.3584 11.2907 31.5695 15.5883 31.5695 20.1863C31.5695 26.6997 26.9311 32.2655 20.7811 33.1324C20.0686 33.2321 17.6698 33.6858 16.6355 35.3435C16.5239 35.5252 16.3303 35.6238 16.1332 35.6238Z" fill="#214AA3"/>
<path d="M27.515 34.9636C27.325 34.9636 27.1386 34.9493 26.9569 34.9161C24.228 34.4363 23.8706 32.243 23.8587 32.1492C23.8373 32.015 23.8646 31.8773 23.9335 31.7597C23.9762 31.6861 25.1364 29.7683 27.7834 30.2385C29.605 30.5591 31.2794 32.7441 31.3506 32.8368C31.4504 32.9686 31.4907 33.136 31.4622 33.2987C31.4337 33.4614 31.3387 33.6051 31.1998 33.6941C31.1191 33.7476 29.2155 34.9636 27.515 34.9636ZM25.0925 32.186C25.2386 32.5993 25.7183 33.4923 27.1635 33.7464C28.0886 33.9079 29.263 33.3937 29.9601 33.0327C29.3734 32.3998 28.4294 31.5578 27.5767 31.407C26.1886 31.1612 25.3894 31.8416 25.0925 32.186Z" fill="#214AA3"/>
<path d="M31.8227 28.8551C29.6935 28.8551 28.829 27.3054 28.7945 27.2389C28.7292 27.1189 28.7078 26.9812 28.7328 26.8482C28.7506 26.7556 29.1864 24.567 31.8274 24.1015C33.6253 23.7916 35.9789 25.2653 36.068 25.3223C36.2069 25.4125 36.3019 25.555 36.3316 25.7177C36.3613 25.8804 36.3197 26.0478 36.22 26.1796C36.1487 26.2723 34.4732 28.4561 32.6503 28.7779C32.3547 28.8313 32.0792 28.8551 31.8227 28.8551ZM29.9654 26.8506C30.2445 27.1902 31.0128 27.8588 32.4449 27.6106C33.2987 27.4598 34.244 26.6178 34.8306 25.9849C34.13 25.6239 32.9567 25.1121 32.0352 25.2712C30.6245 25.5194 30.1233 26.4314 29.9654 26.8506Z" fill="#214AA3"/>
<path d="M32.4902 21.6861C31.5806 21.6861 30.9714 21.3275 30.9049 21.2871C30.7885 21.2159 30.7007 21.1078 30.6555 20.9795C30.6247 20.8905 29.9074 18.7779 31.9642 17.0537C33.1125 16.0882 35.1312 15.9849 35.947 15.9849C36.137 15.9849 36.2487 15.9909 36.2487 15.9909C36.4137 15.9992 36.5693 16.0764 36.6738 16.2022C36.7807 16.3293 36.8293 16.4944 36.808 16.6582C36.7925 16.7746 36.4351 19.5035 35.016 20.6922C34.2299 21.3512 33.3797 21.6861 32.4902 21.6861ZM31.7255 20.3632C31.8953 20.4262 32.1625 20.4986 32.4914 20.4986C33.0947 20.4986 33.6872 20.2575 34.2537 19.7825C34.9175 19.2256 35.3141 18.0239 35.5065 17.1831C34.7429 17.2199 33.4319 17.3719 32.7277 17.9633C31.6328 18.8812 31.653 19.9191 31.7255 20.3632Z" fill="#214AA3"/>
<path d="M29.9353 14.8497C29.8 14.8497 29.7228 14.8402 29.7228 14.8402C29.591 14.8235 29.4603 14.7618 29.3677 14.6668C29.3 14.5991 27.7598 12.9865 28.8939 10.5557C29.6765 8.87892 32.2189 7.82561 32.327 7.78167C32.4825 7.71873 32.6523 7.7223 32.802 7.79355C32.9528 7.86361 33.0668 7.99186 33.1178 8.1498C33.1523 8.26023 33.9811 10.887 33.1986 12.5649C32.2106 14.6846 30.4507 14.8497 29.9353 14.8497ZM32.1583 9.17342C31.396 9.57598 30.3367 10.2719 29.9698 11.0568C29.3653 12.3524 29.8237 13.2857 30.0766 13.6562C30.573 13.6194 31.5135 13.3665 32.1227 12.0614C32.4896 11.2729 32.3412 10.0154 32.1583 9.17342Z" fill="#214AA3"/>
<path d="M25.6348 10.0937C25.5635 10.0937 25.4935 10.0807 25.4258 10.0557C25.3379 10.0225 23.2598 9.21261 23.2598 6.53124C23.2598 4.67993 25.1194 2.65049 25.199 2.56499C25.4234 2.32274 25.8461 2.32274 26.0706 2.56499C26.149 2.65049 28.0098 4.67993 28.0098 6.53124C28.0098 9.30168 25.9115 10.0332 25.8224 10.0629C25.7606 10.0842 25.6989 10.0937 25.6348 10.0937ZM25.6348 3.89855C25.1146 4.58611 24.4473 5.66436 24.4473 6.53124C24.4473 7.96099 25.2571 8.61293 25.6431 8.84211C26.0278 8.6248 26.8223 7.9978 26.8223 6.53124C26.8223 5.6608 26.1561 4.58493 25.6348 3.89855Z" fill="#214AA3"/>
<path d="M24.4025 27.9062C24.3123 27.9062 24.2232 27.8861 24.1389 27.8445L19.0006 25.2985L13.8623 27.8445C13.6664 27.9431 13.43 27.9241 13.2495 27.7922C13.0714 27.6628 12.9788 27.4443 13.0109 27.2258L13.8457 21.5531L9.83549 17.4527C9.68111 17.2947 9.62649 17.0644 9.69536 16.8542C9.76424 16.644 9.94236 16.4884 10.1609 16.4516L15.8157 15.4909L16.5045 14.174C16.6577 13.8842 17.0199 13.7726 17.306 13.9234C17.597 14.0754 17.7098 14.4341 17.5578 14.725L16.7325 16.302C16.6458 16.4659 16.4879 16.5811 16.3062 16.6119L11.4802 17.4325L14.9025 20.9321C15.032 21.0651 15.0925 21.2503 15.0664 21.4332L14.3539 26.2758L18.7394 24.1027C18.9044 24.0207 19.1015 24.0207 19.2654 24.1027L23.6509 26.2758L22.9384 21.4332C22.9122 21.2503 22.9716 21.0639 23.1022 20.9321L26.5246 17.4325L21.6986 16.6119C21.5169 16.5811 21.359 16.4659 21.2723 16.302L19.0006 11.9676L18.5731 12.787C18.4199 13.0779 18.0601 13.1907 17.7715 13.0376C17.4806 12.8856 17.3678 12.5269 17.5198 12.236L18.4745 10.412C18.6812 10.0225 19.32 10.0189 19.5279 10.412L22.1867 15.4909L27.8415 16.4516C28.06 16.4884 28.2382 16.644 28.307 16.8542C28.3759 17.0644 28.3213 17.2947 28.1669 17.4527L24.1567 21.5531L24.9915 27.2258C25.0224 27.4443 24.931 27.6628 24.7529 27.7922C24.6484 27.8682 24.5249 27.9062 24.4025 27.9062Z" fill="#214AA3"/>
</svg>
