<svg width="38" height="38" viewBox="0 0 38 38" fill="none" xmlns="http://www.w3.org/2000/svg">
<g clip-path="url(#clip0_260_17256)">
<path d="M12.5469 27.7565V25.8268C12.5469 25.3562 12.164 24.9733 11.6934 24.9733H5.01367C4.54305 24.9733 4.16016 25.3562 4.16016 25.8268V27.7565C4.16016 28.2272 4.54305 28.61 5.01367 28.61H11.6934C12.164 28.61 12.5469 28.2272 12.5469 27.7565ZM11.4336 27.4968H5.27344V26.0866H11.4336V27.4968Z" fill="#214AA3"/>
<path d="M37.4434 28.5742H29.3427C29.0969 26.4737 27.3063 24.8383 25.1409 24.8383H24.8262V16.4202C26.1163 17.164 27.6119 17.5898 29.2051 17.5898C34.0546 17.5898 38 13.6444 38 8.79492C38 6.77766 37.2998 4.80678 36.0285 3.24544C35.8344 3.00712 35.4838 2.9712 35.2453 3.16528C35.0069 3.35944 34.9711 3.71005 35.1651 3.94844C36.2753 5.31176 36.8867 7.03297 36.8867 8.79492C36.8867 13.0306 33.4407 16.4766 29.2051 16.4766C24.9694 16.4766 21.5234 13.0306 21.5234 8.79492C21.5234 4.55926 24.9694 1.11328 29.2051 1.11328C30.7444 1.11328 32.2295 1.56683 33.4995 2.42488C33.7544 2.59699 34.1003 2.52997 34.2724 2.27518C34.4445 2.02038 34.3775 1.67445 34.1227 1.50234C32.6679 0.519531 30.9674 0 29.2051 0C24.3556 0 20.4102 3.94539 20.4102 8.79492C20.4102 9.15919 20.4324 9.51833 20.4757 9.87109H4.76106C4.45364 9.87109 4.20442 10.1203 4.20442 10.4277C4.20442 10.7351 4.45364 10.9844 4.76106 10.9844H20.686C21.1182 12.6651 22.0359 14.1529 23.2801 15.2891H17.855V14.172C17.855 13.3147 17.1576 12.6172 16.3003 12.6172H9.83562C8.97832 12.6172 8.28081 13.3146 8.28081 14.172V15.2891H1.11328V10.9844H2.35845C2.66586 10.9844 2.91509 10.7351 2.91509 10.4277C2.91509 10.1203 2.66586 9.87109 2.35845 9.87109H0.853516C0.382895 9.87109 0 10.254 0 10.7246V15.5488C0 16.0194 0.382895 16.4023 0.853516 16.4023H1.52148V30.6895C1.52148 31.1601 1.90438 31.543 2.375 31.543H8.3882C8.30382 31.8119 8.25832 32.098 8.25832 32.3944C8.25832 33.0774 8.814 33.633 9.49696 33.633H17.565C18.7621 33.633 19.9626 33.7604 21.1331 34.0115L28.2581 35.5401V37.4434C28.2581 37.7508 28.5073 38 28.8148 38H37.4434C37.7508 38 38 37.7508 38 37.4434V29.1309C38 28.8234 37.7508 28.5742 37.4434 28.5742ZM9.39402 14.172C9.39402 13.9286 9.59203 13.7305 9.83554 13.7305H16.3002C16.5437 13.7305 16.7417 13.9285 16.7417 14.172V15.2891H9.39402V14.172ZM2.63477 30.4297V16.4023H23.7129V24.8383H18.5541C17.4266 24.8383 16.5094 25.7556 16.5094 26.8831C16.5094 28.0105 17.4266 28.9277 18.5541 28.9277H22.0758C22.2457 28.9277 22.3838 29.0658 22.3838 29.2357C22.3838 29.4055 22.2457 29.5436 22.0758 29.5436H11.1091C10.298 29.5436 9.56494 29.8841 9.04534 30.4296H2.63477V30.4297ZM36.8867 36.8867H29.3715V33.2127C29.3715 32.9053 29.1222 32.656 28.8148 32.656C28.5074 32.656 28.2582 32.9053 28.2582 33.2127V34.4016L21.3667 32.9231C20.1196 32.6555 18.8405 32.5198 17.5651 32.5198H9.49696C9.42786 32.5198 9.3716 32.4636 9.3716 32.3945C9.3716 31.4365 10.151 30.657 11.1091 30.657H22.0758C22.8594 30.657 23.497 30.0195 23.497 29.2358C23.497 28.4521 22.8594 27.8146 22.0758 27.8146H18.554C18.0404 27.8146 17.6226 27.3968 17.6226 26.8832C17.6226 26.3696 18.0404 25.9518 18.554 25.9518H25.1409C26.8598 25.9518 28.2581 27.3501 28.2581 29.069V30.7825C28.2581 31.0899 28.5073 31.3392 28.8148 31.3392C29.1222 31.3392 29.3714 31.0899 29.3714 30.7825V29.6875H36.8867V36.8867Z" fill="#214AA3"/>
<path d="M32.5788 5.47837C32.576 5.48082 32.5733 5.48334 32.5705 5.48594L27.9105 9.82818L26.1666 8.36429C26.1586 8.35761 26.1505 8.35108 26.1421 8.34485C25.7849 8.07759 25.345 7.96537 24.9035 8.02927C24.4621 8.09295 24.0718 8.32473 23.8047 8.68188C23.2558 9.41575 23.403 10.458 24.1314 11.0116L26.974 13.3313C26.9801 13.3363 26.9862 13.3411 26.9925 13.3458C27.2889 13.5675 27.6408 13.6772 27.9919 13.6771C28.3923 13.6771 28.7917 13.5345 29.1062 13.2531C29.1087 13.2509 29.1111 13.2486 29.1136 13.2464L34.8098 7.96381C35.4922 7.34935 35.5495 6.29433 34.9367 5.60944C34.6392 5.27702 34.2301 5.08034 33.7848 5.05555C33.34 5.03083 32.9113 5.18098 32.5788 5.47837ZM34.1072 6.3517C34.3118 6.58045 34.2923 6.93306 34.0635 7.13768C34.0611 7.13991 34.0586 7.14213 34.0562 7.14436L28.361 12.4261C28.1666 12.5974 27.877 12.6114 27.6673 12.4601L24.8271 10.1424C24.821 10.1374 24.8148 10.1326 24.8086 10.1279C24.5628 9.94404 24.5124 9.59447 24.6962 9.34866C24.7853 9.22961 24.9153 9.15235 25.0624 9.13112C25.2052 9.11056 25.3476 9.14515 25.4648 9.22872L27.5718 10.9974C27.7871 11.1782 28.1035 11.1701 28.3091 10.9784L33.3245 6.30495C33.4349 6.20787 33.576 6.15888 33.7231 6.16712C33.8717 6.17529 34.008 6.2409 34.1072 6.3517Z" fill="#214AA3"/>
</g>
<defs>
<clipPath id="clip0_260_17256">
<rect width="38" height="38" fill="white"/>
</clipPath>
</defs>
</svg>
