<svg width="38" height="38" viewBox="0 0 38 38" fill="none" xmlns="http://www.w3.org/2000/svg">
<g clip-path="url(#clip0_337_14943)">
<path d="M37.0555 12.6569C37.3511 12.7413 37.6591 12.5702 37.7436 12.2746C37.8804 11.7959 37.9657 11.2999 37.9972 10.8003C38.0277 10.3168 37.8052 9.86767 37.4021 9.59892C36.9988 9.33018 36.4987 9.29767 36.0641 9.51194L35.1402 9.96742C35.3027 8.85763 35.2343 7.72216 34.9337 6.62981C34.8016 6.14991 34.4353 5.78809 33.9539 5.66192C33.4722 5.5356 32.9757 5.67142 32.6253 6.02485L24.6586 14.0594C24.3929 13.6962 23.9842 13.4441 23.5161 13.3861C23.2444 12.8216 22.9733 12.1233 23.3941 11.496C23.6536 11.1073 24.0705 10.8845 24.5377 10.8845H26.2665C26.5209 10.8845 26.7429 10.712 26.8059 10.4654C27.0117 9.65852 26.8368 8.81859 26.326 8.16101C26.0775 7.84113 25.7672 7.58827 25.4185 7.41222L25.6119 6.58335C25.7077 6.17255 25.6123 5.7475 25.3501 5.41715C25.088 5.0868 24.6957 4.89725 24.2739 4.89725H24.1888V4.54612C24.1888 4.23871 23.9395 3.98948 23.6321 3.98948C23.3247 3.98948 23.0755 4.23871 23.0755 4.54612V4.89725H22.9904C22.5685 4.89725 22.1763 5.08673 21.914 5.41715C21.6916 5.68946 21.5386 6.22613 21.6751 6.68109C21.4989 6.5397 21.3596 6.3529 21.272 6.13239C21.1281 5.7705 21.1351 5.3554 21.2894 4.99047L21.6962 4.24739C21.9589 3.76764 21.9704 3.18874 21.7273 2.69889C21.4841 2.20898 21.016 1.86831 20.475 1.78741C20.2188 1.74912 19.9531 1.77146 19.7068 1.85206C19.6571 1.86831 19.607 1.88197 19.5568 1.89473V1.63245C19.5568 1.32503 19.3076 1.07581 19.0001 1.07581C18.6927 1.07581 18.4435 1.32503 18.4435 1.63245V1.89466C18.3933 1.88189 18.3432 1.86824 18.2934 1.85198C18.0471 1.77138 17.7814 1.74904 17.5252 1.78734C16.9842 1.86816 16.5161 2.2089 16.2729 2.69882C16.0298 3.18874 16.0413 3.76757 16.304 4.24732L16.7127 4.99381C16.8655 5.3577 16.8721 5.7711 16.7288 6.1318C16.641 6.35253 16.5015 6.53948 16.3251 6.68102C16.428 6.32981 16.3915 5.82194 16.0862 5.41707C15.824 5.08665 15.4317 4.89717 15.0099 4.89717H14.9247V4.54605C14.9247 4.23863 14.6755 3.98941 14.3681 3.98941C14.0607 3.98941 13.8114 4.23863 13.8114 4.54605V4.89717H13.7263C13.3045 4.89717 12.9123 5.08665 12.6501 5.41707C12.3879 5.7475 12.2925 6.17255 12.3883 6.58335L12.5817 7.41222C12.233 7.58827 11.9227 7.84113 11.6742 8.16101C11.1634 8.81859 10.9885 9.65852 11.1943 10.4654C11.2573 10.7119 11.4793 10.8845 11.7337 10.8845H13.4625C13.9297 10.8845 14.3466 11.1073 14.6061 11.496C15.0054 11.9954 14.777 12.8245 14.4841 13.3861C14.016 13.4441 13.6073 13.6962 13.3416 14.0594L9.18777 9.87012C8.97128 9.65184 8.61889 9.65036 8.40061 9.86678C8.18233 10.0832 8.18085 10.4357 8.39727 10.6539L12.3606 14.6511L4.12198 10.5897C3.80336 9.38978 3.80863 8.12791 4.13965 6.9252C4.17631 6.79205 4.28385 6.75049 4.32831 6.73883C4.37291 6.72718 4.48691 6.71063 4.58421 6.80875L6.56192 8.80337C6.77841 9.02165 7.1308 9.02321 7.34908 8.80671C7.56736 8.59022 7.56884 8.23783 7.35242 8.01955L5.37479 6.02485C5.02433 5.67142 4.52781 5.53568 4.0462 5.66192C3.56475 5.78809 3.19848 6.14991 3.06637 6.62973C2.76556 7.7226 2.6975 8.85777 2.86004 9.96749L1.93587 9.51186C1.50125 9.2976 1.00109 9.33018 0.597933 9.59885C0.194778 9.86752 -0.0277296 10.3167 0.00277429 10.8002C0.114399 12.5691 0.878183 14.1837 2.11763 15.3709L1.63054 15.3518C1.12986 15.3317 0.670519 15.5734 0.40259 15.9971C0.134587 16.4207 0.113286 16.9388 0.34559 17.3831C1.1663 18.9523 2.59196 20.072 4.23999 20.5283C3.97043 20.7333 3.79505 21.0383 3.75638 21.3872C3.70643 21.8382 3.89472 22.2683 4.26003 22.5376C5.41531 23.389 6.80758 23.8283 8.20861 23.8283C8.44418 23.8283 8.67997 23.8148 8.91494 23.7898L8.73801 23.9847C8.42926 24.3247 8.32825 24.7889 8.4677 25.2264C8.60723 25.664 8.95829 25.984 9.40687 26.0826C10.1548 26.2099 10.848 26.2739 11.6507 26.1654C11.6096 26.3374 11.5877 26.5153 11.5877 26.6974C11.5877 26.9307 11.6232 27.1571 11.6897 27.3732L8.49383 28.953C8.08815 28.6729 7.3784 28.616 6.8602 28.9574L5.94175 27.5957C6.31618 27.1575 6.50418 26.5645 6.40643 25.952C6.22957 24.8432 5.18368 24.0851 4.0747 24.2619C3.96174 24.28 3.85257 24.3074 3.74747 24.3427L3.3559 23.7622C3.18401 23.5073 2.83807 23.44 2.58313 23.612C2.32827 23.7839 2.26102 24.1299 2.43291 24.3848L2.82976 24.9731C2.46832 25.409 2.28848 25.992 2.38452 26.5937C2.5884 27.7794 3.80381 28.6021 5.01498 28.2128L5.9062 29.534C5.66966 29.7291 5.49889 29.9909 5.41799 30.2931C5.31542 30.6764 5.36819 31.0767 5.56665 31.4202C5.73765 31.7162 6.00424 31.9372 6.3115 32.0581C6.25829 32.393 6.32048 32.7335 6.49245 33.0311C6.75927 33.4932 7.25839 33.7736 7.78237 33.7736C7.97356 33.7738 8.31615 33.7128 8.6007 33.5288L9.4652 34.8105C9.57274 34.97 9.74835 35.056 9.92721 35.056C10.0342 35.056 10.1425 35.0251 10.238 34.9608C10.4928 34.7889 10.5601 34.4429 10.3882 34.188L9.55486 32.9525C9.87199 32.6363 10.0811 32.3705 10.0943 31.7732L13.2696 30.6644C13.1922 30.9342 13.149 31.195 13.149 31.4423C13.149 31.9985 13.3506 32.4891 13.7321 32.8608C14.3048 33.4189 15.1562 33.6012 15.7149 33.6595C15.7321 34.3961 16.1979 34.9878 17.0329 35.3284C17.6523 35.581 18.1788 36.0478 18.5156 36.643C18.6144 36.8176 18.8002 36.9244 19.0008 36.9243C19.2014 36.9243 19.3871 36.8152 19.4859 36.6406C19.8226 36.0457 20.348 35.5793 20.9655 35.3273C21.8016 34.9861 22.268 34.3947 22.2853 33.6595C22.8439 33.6012 23.6954 33.4189 24.268 32.8608C24.6495 32.4891 24.8512 31.9985 24.8512 31.4423C24.8512 31.2093 24.8163 30.967 24.7525 30.718L28.2683 32.081C28.4123 32.3997 28.6659 32.6667 28.994 32.8194C29.2648 32.9128 29.4826 33.0173 29.9788 32.9134C30.1263 33.209 30.3704 33.4551 30.6806 33.5994C30.8827 33.6934 31.0953 33.7379 31.3048 33.7379C31.865 33.7379 32.4025 33.4195 32.6539 32.879L33.0584 32.0095C33.0885 31.9447 33.1121 31.8782 33.1325 31.8109C34.2576 31.2947 34.9932 30.1668 34.9932 28.9078C34.9932 27.3361 33.8521 26.0268 32.3551 25.7626V25.4093C32.3551 25.1019 32.1059 24.8526 31.7985 24.8526C31.4911 24.8526 31.2418 25.1019 31.2418 25.4093V25.7626C29.8189 26.0138 28.7185 27.2093 28.613 28.6767L26.3015 27.3952C26.3859 27.1151 26.4648 26.6354 26.3506 26.1779C26.6011 26.2156 26.8611 26.2349 27.1334 26.2349C27.5795 26.2349 28.058 26.1847 28.5781 26.0857C28.5832 26.0847 28.5883 26.0837 28.5934 26.0826C29.0419 25.984 29.393 25.664 29.5325 25.2265C29.672 24.7889 29.5709 24.3247 29.2622 23.9847L29.0852 23.7898C29.3202 23.8148 29.5559 23.8283 29.7915 23.8283C31.1923 23.8283 32.585 23.389 33.7401 22.5376C34.1054 22.2684 34.2937 21.8383 34.2438 21.3873C34.2051 21.0384 34.0297 20.7333 33.7601 20.5284C35.4082 20.0721 36.8338 18.9525 37.6545 17.3832C37.8868 16.9389 37.8656 16.4208 37.5975 15.9972C37.3295 15.5735 36.8695 15.3315 36.3696 15.3519L35.8757 15.3713C36.0778 15.1769 36.27 14.9712 36.4491 14.7516C36.6434 14.5134 36.6078 14.1627 36.3695 13.9685C36.1313 13.7741 35.7806 13.8098 35.5864 14.048C35.1207 14.6189 34.5601 15.0887 33.9208 15.4479L25.9046 15.762L36.5563 10.5105C36.6593 10.4597 36.7436 10.498 36.7846 10.5254C36.8256 10.5528 36.8933 10.6157 36.8861 10.7303C36.8596 11.1502 36.788 11.5669 36.6731 11.9689C36.5887 12.2643 36.7598 12.5724 37.0555 12.6569ZM33.4157 6.80875C33.513 6.71056 33.6271 6.72711 33.6716 6.73883C33.7161 6.75049 33.8236 6.79205 33.8603 6.92527C34.1912 8.12754 34.1962 9.39 33.8776 10.5899L25.6396 14.6513L33.4157 6.80875ZM22.7513 25.6072C22.7513 26.0667 22.4839 26.4788 22.086 26.676C21.7637 26.3346 21.4333 26.0044 21.1068 25.6909C21.5853 25.4157 22.1112 25.2332 22.6621 25.1542C22.7206 25.2965 22.7513 25.4493 22.7513 25.6072ZM25.7762 9.77126H24.5377C23.7046 9.77126 22.9309 10.1849 22.4682 10.8777C21.9992 11.5546 21.9206 12.583 22.3053 13.3729H19.5566V11.8439C19.5566 9.85646 21.1734 8.23961 23.1608 8.23961H24.2117C24.6981 8.23961 25.1483 8.45996 25.4468 8.84412C25.6572 9.11487 25.77 9.43861 25.7762 9.77126ZM17.7632 6.54304C17.9185 6.15228 17.9735 5.72701 17.9301 5.30983H20.0704C20.0269 5.72723 20.0819 6.15273 20.2372 6.54356C20.4116 6.98227 20.6989 7.35099 21.0666 7.61832C20.1873 8.05592 19.463 8.75943 18.9999 9.62356C18.5369 8.75943 17.8126 8.05592 16.9333 7.61832C17.3013 7.35091 17.5887 6.98205 17.7632 6.54304ZM22.786 6.10916C22.8152 6.07228 22.8806 6.01053 22.9902 6.01053H24.2738C24.3834 6.01053 24.4488 6.07235 24.478 6.10916C24.5072 6.14598 24.5526 6.22376 24.5276 6.33041L24.3411 7.12989L22.9233 7.13227L22.7362 6.33041C22.7114 6.22376 22.7567 6.14605 22.786 6.10916ZM17.27 3.19386C17.3527 3.02724 17.5057 2.91591 17.6896 2.88845C17.7755 2.87568 17.8645 2.8831 17.9471 2.91012C18.6359 3.13559 19.3641 3.13567 20.0529 2.91012C20.1355 2.8831 20.2245 2.87576 20.3104 2.88845C20.4944 2.91598 20.6473 3.02731 20.73 3.19386C20.8127 3.36048 20.8088 3.54959 20.7196 3.71279L20.4548 4.19655H17.5452L17.2804 3.71279C17.1911 3.54966 17.1873 3.36048 17.27 3.19386ZM13.4723 6.33048C13.4474 6.22376 13.4927 6.14598 13.5219 6.10916C13.5512 6.07228 13.6165 6.01053 13.7261 6.01053H15.0097C15.1193 6.01053 15.1847 6.07235 15.214 6.10916C15.2432 6.14598 15.2885 6.22368 15.2636 6.33041L15.0765 7.13227L13.6588 7.12989L13.4723 6.33048ZM13.4622 9.77126H12.2238C12.2299 9.43868 12.3428 9.11494 12.5531 8.84412C12.8516 8.45996 13.3017 8.23961 13.7882 8.23961H14.8391C16.8265 8.23961 18.4434 9.85646 18.4434 11.8439V13.3729H15.6946C16.0609 12.6406 16.0261 11.6065 15.5317 10.8777C15.069 10.1849 14.2953 9.77126 13.4622 9.77126ZM14.1326 15.044C14.1326 14.7364 14.3829 14.4861 14.6905 14.4861H23.3096C23.6172 14.4861 23.8675 14.7364 23.8675 15.044V23.4376C23.8675 23.5869 23.8093 23.7272 23.7036 23.8326C23.5983 23.9377 23.4584 23.9956 23.3096 23.9956C21.9222 23.9869 20.4437 24.5596 19.4215 25.5856L19.0001 26.0016L18.5786 25.5856C17.5778 24.5978 16.2649 24.0394 14.8655 23.9995C14.7402 23.9967 14.4943 24.0133 14.2965 23.8326C14.1909 23.7273 14.1327 23.587 14.1327 23.4377L14.1326 15.044ZM15.9417 26.6896C15.5274 26.4989 15.2471 26.0795 15.2471 25.6071C15.2471 25.4493 15.2778 25.2962 15.3364 25.154C15.8954 25.234 16.4288 25.4202 16.9131 25.7021C16.5893 26.0172 16.2618 26.3483 15.9417 26.6896ZM1.11383 10.7302C1.10655 10.6156 1.17431 10.5526 1.21536 10.5252C1.25625 10.4979 1.34049 10.4596 1.44358 10.5104L12.0954 15.7618L4.07738 15.4477C2.34504 14.474 1.23918 12.7179 1.11383 10.7302ZM1.33196 16.8672C1.26553 16.7402 1.31771 16.6325 1.34324 16.5922C1.36877 16.5519 1.44321 16.4595 1.58682 16.4642L12.4201 16.8886L6.18118 19.6347C4.16711 19.7393 2.26978 18.6602 1.33196 16.8672ZM4.92042 21.6414C4.86521 21.6007 4.8586 21.5474 4.86283 21.5098C4.86699 21.4723 4.8851 21.4217 4.94789 21.394L13.0193 17.8413V19.2701L10.2435 22.3267C8.48062 23.0276 6.45052 22.7691 4.92042 21.6414ZM9.63761 24.9932C9.5694 24.9752 9.54046 24.9265 9.52829 24.8882C9.5156 24.8483 9.51114 24.7891 9.56206 24.7331L13.0193 20.926V23.4376C13.0193 23.7558 13.109 24.0594 13.274 24.3223C12.2929 24.9463 11.2312 25.3162 9.63761 24.9932ZM13.48 25.468C13.6278 25.3712 13.855 25.2697 14.1741 25.1826C14.1484 25.3215 14.1338 25.4632 14.1338 25.6072C14.1338 26.4035 14.5456 27.1231 15.1826 27.539C14.9754 27.7834 14.7768 28.03 14.5898 28.2769C13.5302 28.1951 12.7009 27.5179 12.7009 26.6973C12.6997 26.2896 12.9912 25.7426 13.48 25.468ZM13.8594 29.2792L9.64956 30.7492C9.50751 30.6092 9.33888 30.4992 9.15074 30.4259C9.17968 30.2423 9.1736 30.0573 9.13404 29.8783L12.2511 28.3375C12.6535 28.7778 13.2131 29.1119 13.8594 29.2792ZM7.68277 29.825C7.71505 29.825 7.74756 29.8292 7.77962 29.8378C7.87566 29.8635 7.95589 29.9251 8.00562 30.0112C8.05534 30.0973 8.06856 30.1975 8.04288 30.2935C8.01712 30.3895 7.9556 30.4698 7.8695 30.5194L7.039 30.9992C6.99899 31.0223 6.95617 31.0376 6.91171 31.0447C6.76038 31.069 6.60741 30.9959 6.53067 30.8631C6.48095 30.777 6.46773 30.6768 6.49341 30.5807C6.51917 30.4848 6.5807 30.4045 6.66679 30.3548L7.49737 29.875C7.55467 29.842 7.61827 29.825 7.68277 29.825ZM3.48392 26.4183C3.40369 25.9157 3.7474 25.4415 4.25001 25.3612C4.65947 25.2878 5.21292 25.5849 5.30703 26.1273C5.38726 26.6299 5.04355 27.1041 4.54095 27.1844C4.03811 27.2644 3.56408 26.9209 3.48392 26.4183ZM7.96472 32.6103C7.92472 32.6334 7.8819 32.6487 7.83744 32.6558C7.68611 32.6802 7.53307 32.607 7.45633 32.4742C7.4066 32.3881 7.39339 32.2878 7.41914 32.1918C7.44482 32.0958 7.50635 32.0155 7.59244 31.9659C7.60068 31.9599 8.39497 31.5012 8.4231 31.4861C8.50919 31.4364 8.60931 31.4231 8.70535 31.4489C8.80139 31.4746 8.88162 31.5362 8.93142 31.6223C8.98115 31.7083 8.99436 31.8086 8.96861 31.9047C8.94293 32.0006 8.88132 32.0809 8.7953 32.1306L7.96472 32.6103ZM23.4924 32.0619C23.1777 32.3701 22.6161 32.5006 22.195 32.5485C22.129 32.1517 22.0289 31.7519 21.8948 31.3609C21.7951 31.0701 21.4784 30.9154 21.1877 31.015C20.8969 31.1147 20.742 31.4314 20.8417 31.7222C21.0557 32.3457 21.1735 33.0188 21.1735 33.6172C21.1735 33.7218 21.1735 34.0399 20.5446 34.2965C19.9521 34.5383 19.4221 34.9224 18.9995 35.4091C18.5769 34.9233 18.0464 34.5394 17.4531 34.2975C16.8264 34.0419 16.8264 33.7333 16.8264 33.6172C16.8264 31.6958 17.9639 29.5861 18.9999 29.5861C19.2039 29.5861 19.4166 29.6667 19.632 29.8257C19.8793 30.0083 20.2279 29.9558 20.4104 29.7085C20.593 29.4611 20.5405 29.1126 20.2932 28.93C19.8822 28.6267 19.4471 28.4729 18.9999 28.4729C18.0885 28.4729 17.2301 29.1142 16.5828 30.2787C16.2084 30.9523 15.9377 31.7527 15.8051 32.5481C15.3875 32.4997 14.8229 32.3693 14.509 32.0635C14.3405 31.8994 14.2622 31.702 14.2622 31.4423C14.2622 30.3913 15.5484 28.5619 17.8059 26.3872L18.6089 27.1799C18.7173 27.2869 18.8586 27.3404 19 27.3404C19.1414 27.3404 19.2827 27.2869 19.3911 27.1799L20.2035 26.3779C20.2052 26.3762 20.2071 26.3746 20.2088 26.3729C20.6848 26.8247 21.1182 27.2632 21.5045 27.6841C21.5067 27.6865 21.5089 27.6889 21.5111 27.6913C22.9447 29.2546 23.7378 30.5754 23.7378 31.4422C23.7377 31.7012 23.6598 31.8981 23.4924 32.0619ZM29.4635 31.81C29.3245 31.7453 29.2382 31.5992 29.249 31.4463C29.2521 31.4014 29.2635 31.3574 29.283 31.3156L29.6875 30.4459C29.7295 30.3558 29.804 30.2874 29.8974 30.2533C29.939 30.2381 29.9821 30.2305 30.0252 30.2305C30.0787 30.2305 30.132 30.2422 30.182 30.2655C30.2721 30.3074 30.3405 30.3819 30.3747 30.4753C30.4087 30.5686 30.4044 30.6697 30.3625 30.7598C30.3592 30.7697 29.9724 31.6005 29.9579 31.6295C29.916 31.7196 29.8415 31.7881 29.7481 31.8221C29.6546 31.8561 29.5536 31.8518 29.4635 31.81ZM32.0488 31.5397L31.6442 32.4093C31.5577 32.5954 31.3357 32.6763 31.1499 32.5898C31.0109 32.5252 30.9246 32.3791 30.9353 32.2262C30.9384 32.1813 30.9499 32.1373 30.9694 32.0955L31.3739 31.2258C31.4159 31.1357 31.4904 31.0673 31.5838 31.0332C31.677 30.9991 31.7781 31.0034 31.8683 31.0454C31.9584 31.0873 32.0268 31.1618 32.061 31.2552C32.0951 31.3485 32.0908 31.4496 32.0488 31.5397ZM31.7983 26.8263C32.946 26.8263 33.8797 27.76 33.8797 28.9077C33.8797 29.6027 33.535 30.2353 32.9844 30.6173C32.8332 30.3648 32.6106 30.1628 32.3379 30.0359C32.0266 29.8911 31.6827 29.8592 31.3542 29.9412C31.205 29.64 30.9605 29.3998 30.6514 29.2559C30.36 29.1203 30.0402 29.0851 29.731 29.1483C29.7219 29.0688 29.7168 28.9887 29.7168 28.9076C29.7168 27.76 30.6505 26.8263 31.7983 26.8263ZM28.6746 29.9838L28.2582 30.8831L24.1278 29.2818C24.7711 29.1175 25.3291 28.7881 25.7327 28.3528L28.6746 29.9838ZM25.2974 26.6973C25.2974 27.508 24.4878 28.1783 23.4466 28.2733C23.257 28.0207 23.0543 27.769 22.8431 27.5202C23.464 27.1007 23.8645 26.3891 23.8645 25.6072C23.8645 25.4632 23.8499 25.3215 23.8241 25.1826C24.4638 25.3093 25.3049 25.9091 25.2974 26.6973ZM28.4716 24.8882C28.4592 24.927 28.4298 24.9764 28.3596 24.9939C26.8024 25.3089 25.8363 25.0152 24.7257 24.3229C24.8908 24.0598 24.9806 23.756 24.9806 23.4376V20.926L28.4379 24.7331C28.4888 24.7891 28.4844 24.8484 28.4716 24.8882ZM33.0795 21.6414C31.5494 22.769 29.5193 23.0276 27.7564 22.3267L24.9806 19.2701V17.8413L33.0521 21.394C33.1148 21.4216 33.1329 21.4722 33.1371 21.5097C33.1413 21.5474 33.1347 21.6007 33.0795 21.6414ZM36.4131 16.4642C36.5563 16.46 36.6311 16.5519 36.6567 16.5922C36.6822 16.6326 36.7344 16.7402 36.668 16.8672C35.7302 18.6603 33.8334 19.7398 31.8188 19.6348L25.5798 16.8887L36.4131 16.4642Z" fill="#214AA3"/>
<path d="M15.8048 22.8823C16.8198 22.8697 17.9048 23.3608 18.5799 24.1772C18.6856 24.2986 18.8387 24.3683 18.9997 24.3683C19.1607 24.3683 19.3138 24.2986 19.4195 24.1772C20.0457 23.4114 21.137 22.8646 22.1926 22.8823C22.3432 22.8815 22.4827 22.8245 22.5875 22.72C22.6924 22.6155 22.7513 22.4736 22.7513 22.3256V16.1586C22.7513 15.8512 22.5021 15.6019 22.1947 15.6019H15.8047C15.4973 15.6019 15.248 15.8512 15.248 16.1586V18.0533C15.248 18.3607 15.4973 18.6099 15.8047 18.6099C16.1121 18.6099 16.3613 18.3607 16.3613 18.0533V16.7152H21.6381V21.8002C20.6533 21.9141 19.7298 22.3367 18.9997 23.0081C18.2695 22.3365 17.3463 21.914 16.3614 21.8002V20.651C16.3614 20.3435 16.1122 20.0943 15.8048 20.0943C15.4973 20.0943 15.2481 20.3435 15.2481 20.651V22.3256C15.2481 22.4736 15.3071 22.6155 15.4119 22.72C15.5163 22.8239 15.6575 22.8823 15.8048 22.8823Z" fill="#214AA3"/>
</g>
<defs>
<clipPath id="clip0_337_14943">
<rect width="38" height="38" fill="white"/>
</clipPath>
</defs>
</svg>
