<svg xmlns="http://www.w3.org/2000/svg" width="253" height="239" viewBox="0 0 253 239" fill="none">
  <g filter="url(#filter0_dddd_224_6169)">
    <circle cx="196" cy="58" r="46" fill="white"/>
    <path d="M197 115L187 98L207 98L197 115Z" fill="white"/>
    <path d="M193.518 45.6037C193.357 45.563 193.211 45.4957 193.083 45.4018C193.043 45.3724 192.999 45.3554 192.95 45.3506C192.829 45.3383 192.716 45.3028 192.612 45.244C192.575 45.2226 192.532 45.2123 192.49 45.2141C192.296 45.2227 192.11 45.2013 191.932 45.1501C191.805 45.1146 191.666 45.1786 191.531 45.1601C190.305 44.9895 188.998 44.779 187.768 44.7008C186.303 44.607 184.712 44.543 182.996 44.5089C181.672 44.4818 180.455 44.5956 179.183 44.8132C179.095 44.8283 178.995 44.8681 178.883 44.9326C178.915 44.9042 178.916 44.8786 178.886 44.8558C178.862 44.8378 178.835 44.8278 178.805 44.826C177.54 44.753 176.347 44.3051 175.227 43.4823C175.22 43.4774 175.215 43.4707 175.212 43.463C175.21 43.4553 175.209 43.447 175.211 43.4391C175.213 43.4312 175.218 43.424 175.224 43.4186C175.23 43.4131 175.237 43.4095 175.246 43.4083C175.837 43.3154 176.404 43.2339 176.946 43.1637C177.107 43.1438 177.255 43.0993 177.39 43.0301C177.433 43.0083 177.479 42.9983 177.527 43.0002C178.385 43.0192 179.297 43.0595 180.264 43.1211C181.435 43.195 182.526 43.2481 183.538 43.2803C184.319 43.305 185.142 43.3936 186.009 43.5462C187.25 43.7662 188.541 43.988 189.882 44.2117C190.437 44.3046 191.034 44.5212 191.672 44.8615C191.822 44.9421 192.005 44.9952 192.222 45.0208C192.734 45.0805 193.166 45.2748 193.518 45.6037Z" fill="#AFDBF1"/>
    <path d="M200.883 53.4201C201.025 53.7614 201.072 54.1671 201.023 54.6373C201.015 54.7065 201.045 54.7505 201.114 54.7695C201.425 54.8529 201.701 54.7794 201.941 54.5491C202.328 54.1808 202.612 53.7599 203.146 53.5694C203.637 53.3931 204.128 53.177 204.673 53.268C206.101 53.5083 207.543 54.1694 208.294 55.3809C208.557 55.8056 208.762 56.2051 208.91 56.5796C208.997 56.7985 208.965 57.0023 208.812 57.191C208.682 57.3512 208.573 57.5228 208.486 57.7057C208.463 57.7541 208.427 57.7669 208.378 57.7441L208.144 57.636C208.125 57.6271 208.103 57.6248 208.082 57.6294C208.061 57.634 208.042 57.6454 208.029 57.6616C207.991 57.7081 207.991 57.7498 208.029 57.7868C208.111 57.8635 208.194 57.9356 208.278 58.0029C208.287 58.0103 208.295 58.0196 208.299 58.0302C208.304 58.0409 208.306 58.0525 208.306 58.0642C208.305 58.0759 208.302 58.0873 208.296 58.0977C208.29 58.108 208.282 58.1169 208.273 58.1238C207.625 58.5664 206.943 58.9423 206.226 59.2513C205.802 59.4333 205.656 59.5556 205.29 59.4291C205.174 59.3892 205.054 59.3637 204.931 59.3523C204.758 59.3371 204.689 59.3674 204.725 59.4433C204.739 59.4736 204.762 59.494 204.794 59.5044C204.993 59.5736 205.201 59.6461 205.418 59.722C205.43 59.7261 205.441 59.733 205.449 59.7421C205.458 59.7512 205.464 59.7622 205.467 59.7741C205.47 59.786 205.47 59.7985 205.467 59.8105C205.464 59.8225 205.458 59.8336 205.45 59.8428C204.81 60.5438 204.38 61.5804 204.014 62.462C203.92 62.6876 203.761 62.8227 203.538 62.8672C203.475 62.8805 203.422 62.8644 203.379 62.8189C203.221 62.6558 203.041 62.5497 202.841 62.5004C202.782 62.4862 202.751 62.4492 202.75 62.3895C202.745 62.1122 202.763 61.5591 202.461 61.4183C202.416 61.3974 202.391 61.3628 202.386 61.3145C202.354 61.0301 202.296 60.7382 202.211 60.4386C202.135 60.1699 201.976 59.9722 202.002 59.6807C202.007 59.6256 201.993 59.5704 201.962 59.5241C201.932 59.4777 201.886 59.4427 201.833 59.4248C201.741 59.3945 201.671 59.3366 201.623 59.2513C201.59 59.1935 201.54 59.1712 201.474 59.1845C201.394 59.2006 201.312 59.2035 201.227 59.193C201.167 59.1864 201.12 59.158 201.086 59.1077C200.984 58.956 200.84 58.8878 200.653 58.903C200.618 58.9058 200.595 58.8902 200.584 58.856C200.58 58.8428 200.582 58.8304 200.589 58.8191C200.593 58.8086 200.601 58.8015 200.612 58.7977C201.161 58.5845 201.68 58.4039 202.129 58.0001C202.345 57.8038 202.329 57.5194 202.192 57.2905C201.545 56.2108 200.534 55.4487 199.158 55.0041C197.413 54.4396 195.733 54.1879 193.956 53.9633C193.837 53.9472 193.717 53.9116 193.597 53.8566C193.51 53.8168 193.515 53.8002 193.61 53.8069C193.695 53.8125 193.779 53.8054 193.855 53.7642C195.032 53.1262 196.151 52.4921 197.212 51.8617C198.112 51.3271 199.634 50.1113 198.532 48.9582C197.926 48.324 197.289 47.7339 196.689 47.0912C195.706 46.039 194.739 45.0091 193.786 44.0014C193.61 43.8156 193.636 43.7825 193.864 43.9019C194.115 44.0327 194.389 44.1393 194.632 44.283C195.509 44.7986 196.365 45.2906 197.199 45.7589C197.671 46.0224 198.126 46.2319 198.565 46.3874C199.527 46.7286 200.547 47.3244 201.204 48.0112C201.705 48.5344 202.232 49.1648 202.785 49.9023C203.068 50.2796 203.303 50.6725 203.492 51.0811C203.508 51.1169 203.515 51.1565 203.511 51.1958C203.507 51.235 203.492 51.2725 203.469 51.3043C202.818 52.1859 202.045 53.0675 200.943 53.3078C200.878 53.322 200.858 53.3594 200.883 53.4201ZM206.403 56.0734C206.51 56.2113 206.483 56.3492 206.48 56.5071C206.477 56.5967 206.507 56.6844 206.563 56.7549C206.619 56.8255 206.698 56.8747 206.787 56.8938C207.214 56.9848 207.814 56.635 207.433 56.1302C207.175 55.7871 206.839 55.7316 206.425 55.9639C206.375 55.9923 206.368 56.0288 206.403 56.0734Z" fill="#2349A3"/>
    <path d="M193.518 45.6037L194.685 46.5834C194.607 46.5928 194.585 46.6047 194.62 46.6189C194.491 46.5772 194.375 46.527 194.271 46.4682C194.124 46.3857 194.011 46.3322 193.932 46.3075C193.58 46.1994 193.235 46.1118 192.897 46.0445C191.965 45.8587 191.015 45.753 190.045 45.7274C189.705 45.7188 189.385 45.6193 189.034 45.6222C187.624 45.6297 186.193 45.6326 184.741 45.6307C184.447 45.6307 184.113 45.6487 183.74 45.6847C183.47 45.7113 183.141 45.7345 182.752 45.7544C182.033 45.7904 181.162 45.961 180.139 46.2663C180.032 46.2265 179.812 46.0928 179.477 45.8653C179.105 45.6132 178.907 45.3022 178.883 44.9325C178.995 44.8681 179.095 44.8283 179.183 44.8131C180.455 44.5955 181.672 44.4818 182.996 44.5088C184.712 44.5429 186.303 44.6069 187.768 44.7008C188.998 44.779 190.305 44.9894 191.531 45.16C191.666 45.1785 191.805 45.1145 191.932 45.1501C192.11 45.2013 192.296 45.2226 192.49 45.2141C192.532 45.2122 192.575 45.2226 192.612 45.2439C192.716 45.3027 192.829 45.3382 192.95 45.3506C192.999 45.3553 193.043 45.3724 193.083 45.4018C193.211 45.4956 193.357 45.5629 193.518 45.6037Z" fill="#58B2DC"/>
    <path d="M194.621 46.6191C194.434 46.6523 194.248 46.64 194.063 46.5822C194.015 46.5679 193.966 46.5651 193.916 46.5736C193.702 46.6115 193.493 46.6059 193.289 46.5566C193.118 46.5168 192.944 46.4864 192.766 46.4656C192.343 46.4163 191.921 46.3641 191.5 46.3092C191.058 46.2523 190.648 46.2224 190.27 46.2196C189.347 46.211 188.405 46.2182 187.478 46.3134C187.169 46.3447 186.857 46.3727 186.542 46.3973C185.83 46.4532 185.032 46.6002 184.148 46.8381C184.102 46.8504 184.06 46.8713 184.023 46.9007C183.948 46.9604 183.851 47.003 183.733 47.0286C183.731 46.9376 183.657 46.8912 183.511 46.8893C182.954 46.8827 182.402 46.8784 181.856 46.8765C181.275 46.83 180.703 46.6267 180.14 46.2665C181.163 45.9613 182.034 45.7906 182.753 45.7546C183.142 45.7347 183.471 45.7115 183.741 45.6849C184.114 45.6489 184.448 45.6309 184.742 45.6309C186.194 45.6328 187.625 45.63 189.036 45.6224C189.386 45.6195 189.706 45.7191 190.047 45.7276C191.016 45.7532 191.966 45.8589 192.898 46.0447C193.236 46.112 193.581 46.1997 193.933 46.3077C194.012 46.3324 194.125 46.3859 194.272 46.4684C194.376 46.5272 194.492 46.5774 194.621 46.6191Z" fill="#01A2D3"/>
    <path d="M194.623 46.619C194.588 46.6048 194.61 46.593 194.687 46.5835L195.818 47.3641C195.557 47.3755 195.304 47.3632 195.06 47.3271C194.683 47.2712 194.433 47.2385 194.31 47.229C193.845 47.1921 193.387 47.0897 192.945 47.0783C191.977 47.0518 191.056 47.0925 190.182 47.2006C189.882 47.2366 189.434 47.2456 188.838 47.2276C188.387 47.2143 187.949 47.2428 187.524 47.3129C186.946 47.4077 186.353 47.4963 185.743 47.5788C185.706 47.5845 185.672 47.5992 185.644 47.6229C185.608 47.6523 185.588 47.6864 185.584 47.7253L185.505 47.6144C185.476 47.5736 185.437 47.5542 185.387 47.5561C184.918 47.5788 184.615 47.5779 184.48 47.5532C184.228 47.5058 183.956 47.3366 183.665 47.0456C183.63 47.1015 183.653 47.0958 183.734 47.0285C183.852 47.0029 183.949 46.9603 184.024 46.9006C184.062 46.8712 184.103 46.8503 184.15 46.838C185.033 46.6001 185.831 46.4531 186.544 46.3972C186.859 46.3726 187.171 46.3446 187.479 46.3133C188.407 46.218 189.349 46.2109 190.272 46.2195C190.649 46.2223 191.059 46.2522 191.502 46.309C191.923 46.364 192.345 46.4162 192.768 46.4655C192.946 46.4863 193.12 46.5166 193.29 46.5565C193.495 46.6058 193.704 46.6114 193.917 46.5735C193.967 46.565 194.016 46.5678 194.064 46.5821C194.249 46.6399 194.435 46.6522 194.623 46.619Z" fill="#5272BC"/>
    <path d="M181.858 46.8762C182.404 46.8781 182.955 46.8824 183.512 46.889C183.658 46.8909 183.732 46.9374 183.734 47.0284C183.653 47.0957 183.63 47.1014 183.665 47.0454C183.026 47.0805 182.423 47.0241 181.858 46.8762Z" fill="#58B2DC"/>
    <path d="M195.817 47.3642L196.172 47.9472L195.722 47.677C195.683 47.6533 195.643 47.6505 195.6 47.6685C195.404 47.75 195.192 47.7837 194.963 47.7695C194.584 47.7467 194.245 47.6358 193.857 47.704C193.52 47.7638 193.192 47.7462 192.87 47.6514C192.436 47.5235 192.025 47.5761 191.588 47.5761C191.287 47.5751 190.962 47.6145 190.613 47.6941C190.2 47.7889 189.811 47.8676 189.447 47.9301C188.945 48.0169 188.403 48.014 187.879 48.0524C187.524 48.0771 187.323 48.2069 187.276 48.442C187.081 48.3396 186.728 48.2458 186.218 48.1605C185.965 48.1188 185.753 47.9737 185.583 47.7254C185.587 47.6865 185.607 47.6524 185.642 47.623C185.671 47.5993 185.704 47.5846 185.742 47.5789C186.351 47.4964 186.945 47.4078 187.523 47.313C187.948 47.2429 188.386 47.2144 188.837 47.2277C189.433 47.2457 189.881 47.2367 190.181 47.2007C191.055 47.0926 191.976 47.0519 192.944 47.0784C193.385 47.0898 193.844 47.1922 194.308 47.2291C194.431 47.2386 194.681 47.2713 195.058 47.3272C195.302 47.3633 195.555 47.3756 195.817 47.3642Z" fill="#14326F"/>
    <path d="M196.171 47.947C196.327 48.0769 196.464 48.2541 196.583 48.4788C196.397 48.5518 196.27 48.5807 196.201 48.5655C195.352 48.3736 194.461 48.4617 193.598 48.4603C193.451 48.4594 193.245 48.43 192.981 48.3722C192.737 48.3191 192.524 48.3105 192.343 48.3466C191.14 48.5902 189.941 48.794 188.747 48.958C188.133 49.0499 187.643 48.8779 187.276 48.4418C187.323 48.2067 187.524 48.0769 187.878 48.0522C188.402 48.0138 188.944 48.0167 189.446 47.93C189.811 47.8674 190.199 47.7887 190.613 47.6939C190.962 47.6143 191.287 47.5749 191.588 47.5759C192.025 47.5759 192.436 47.5233 192.87 47.6513C193.191 47.7461 193.52 47.7636 193.856 47.7039C194.244 47.6356 194.583 47.7465 194.962 47.7693C195.191 47.7835 195.404 47.7498 195.6 47.6683C195.642 47.6503 195.683 47.6532 195.721 47.6769L196.171 47.947Z" fill="#041E4B"/>
    <path d="M196.585 48.4788C196.659 48.5508 196.712 48.6456 196.746 48.7632C196.763 48.8077 196.76 48.8509 196.735 48.8926C196.711 48.9324 196.675 48.9551 196.629 48.9608C195.933 49.0504 195.248 48.9238 194.58 49.0319C193.524 49.2016 192.621 49.3187 191.869 49.3831C191.368 49.4258 190.987 49.75 190.512 49.7599C190.35 49.7637 190.208 49.7718 190.086 49.7841C189.778 49.7812 189.478 49.7168 189.186 49.5907C188.869 49.4552 188.723 49.2442 188.748 48.958C189.942 48.794 191.141 48.5902 192.345 48.3465C192.525 48.3105 192.738 48.3191 192.982 48.3721C193.246 48.43 193.452 48.4594 193.599 48.4603C194.462 48.4617 195.353 48.3736 196.202 48.5655C196.271 48.5807 196.398 48.5518 196.585 48.4788Z" fill="#69110D"/>
    <path d="M196.747 48.7632L197.278 49.7969L191.767 50.4211C190.966 50.5045 190.406 50.2922 190.087 49.7841C190.209 49.7718 190.351 49.7637 190.512 49.7599C190.988 49.75 191.369 49.4258 191.869 49.3831C192.621 49.3187 193.525 49.2016 194.581 49.0319C195.248 48.9239 195.933 49.0504 196.63 48.9608C196.676 48.9551 196.711 48.9324 196.735 48.8926C196.76 48.8509 196.764 48.8077 196.747 48.7632Z" fill="#9F2819"/>
    <path d="M197.277 49.7969C196.988 50.0784 196.808 50.2988 196.739 50.4581C196.555 50.8818 196.574 51.2866 196.797 51.6724C196.805 51.6854 196.809 51.7004 196.809 51.7156C196.809 51.7308 196.804 51.7457 196.796 51.7587C196.788 51.7717 196.777 51.7823 196.763 51.7894C196.75 51.7964 196.734 51.7998 196.719 51.7989C196.112 51.7686 195.501 51.7326 194.886 51.6908C194.697 51.6776 194.519 51.6908 194.349 51.7307C193.951 51.8264 193.55 51.925 193.144 52.0264C193.13 52.03 193.117 52.0302 193.103 52.0272C193.09 52.0241 193.077 52.0178 193.067 52.0089C193.056 51.9999 193.048 51.9886 193.043 51.9758C193.038 51.963 193.036 51.9491 193.037 51.9354C193.054 51.7743 193.109 51.6202 193.201 51.4733C193.276 51.3539 193.243 51.3008 193.101 51.314C192.733 51.3472 192.389 51.2856 192.066 51.1292C191.809 51.0041 191.709 50.768 191.767 50.4211L197.277 49.7969Z" fill="#DD2A1B"/>
    <path d="M197.337 57.6925L196.616 57.4039C196.429 56.6986 196.063 56.3522 195.518 56.3645C194.781 56.1047 194.059 55.8649 193.353 55.645C192.648 55.4251 191.99 55.2781 191.381 55.2042C188.358 54.8388 185.413 54.762 182.342 54.6682C181.727 54.6501 181.06 54.6558 180.341 54.6852C179.015 54.7402 177.733 54.7838 176.496 54.816C175.492 54.4918 174.597 54.1037 173.812 53.6515C173.588 53.5226 173.602 53.4306 173.855 53.3756L174.015 53.3415C174.058 53.333 174.098 53.3377 174.136 53.3557C174.374 53.4695 174.628 53.5268 174.898 53.5278C178.822 53.5373 182.887 53.6714 187.094 53.9302C188.216 53.9999 189.307 54.2089 190.414 54.3226C190.955 54.3795 191.46 54.2075 192.025 54.243C193.517 54.3368 194.816 54.561 195.922 54.9156C196.718 55.1706 197.55 55.444 198.418 55.736C198.622 55.8042 198.754 55.9507 198.822 56.1483C198.894 56.3588 198.981 56.364 199.083 56.164C199.103 56.1251 199.13 56.0919 199.164 56.0645C199.203 56.0332 199.247 56.0275 199.294 56.0474C200.009 56.3517 200.616 56.6763 201.114 57.0214C201.385 57.2105 201.451 57.5233 201.28 57.8063C200.886 58.4561 200.264 58.9594 199.501 58.5471C198.808 58.1717 198.149 57.8447 197.383 57.5617C197.375 57.5586 197.365 57.5578 197.357 57.5594C197.348 57.561 197.34 57.565 197.333 57.5708C197.326 57.5767 197.321 57.5842 197.319 57.5926C197.316 57.6011 197.316 57.61 197.318 57.6186L197.337 57.6925Z" fill="#AFDBF1"/>
    <path d="M195.517 56.3646C194.509 56.2935 193.528 56.2224 192.573 56.1513C192.253 56.1276 191.932 56.0977 191.608 56.0617C191.055 55.9991 190.435 55.9806 189.75 56.0062C188.01 56.0702 186.288 56.019 184.455 56.0389C183.547 56.0489 182.622 56.1541 181.698 56.2181C181.208 56.2532 180.617 56.3375 179.923 56.4712C179.307 56.5906 178.68 56.6906 178.04 56.7712C177.647 56.6992 177.234 56.6063 176.8 56.4925C175.958 56.2726 175.097 55.965 174.217 55.5697C174.112 55.5223 174.05 55.4512 174.03 55.3564C174.028 55.3474 174.028 55.338 174.03 55.3289C174.031 55.3199 174.035 55.3112 174.04 55.3036C174.046 55.2959 174.052 55.2893 174.06 55.2842C174.068 55.2791 174.077 55.2757 174.086 55.274L176.494 54.8161C177.732 54.7839 179.013 54.7403 180.339 54.6853C181.058 54.6559 181.726 54.6502 182.341 54.6682C185.411 54.7621 188.356 54.8389 191.379 55.2043C191.989 55.2782 192.646 55.4252 193.352 55.6451C194.058 55.865 194.779 56.1048 195.517 56.3646Z" fill="#01A2D3"/>
    <path d="M206.48 56.507C206.483 56.3492 206.51 56.2113 206.403 56.0733C206.368 56.0288 206.375 55.9923 206.425 55.9639C206.839 55.7316 207.175 55.7871 207.433 56.1302C207.814 56.635 207.214 56.9848 206.787 56.8938C206.698 56.8746 206.619 56.8255 206.563 56.7549C206.507 56.6843 206.477 56.5967 206.48 56.507Z" fill="white"/>
    <path d="M195.516 56.3646C196.061 56.3523 196.427 56.6987 196.613 57.404C196.209 57.3974 195.801 57.3737 195.387 57.3329C194.578 57.2533 193.831 57.2476 193.041 57.1608C192.125 57.0613 191.159 57.1395 190.229 57.1452C189.685 57.1495 189.153 57.2376 188.595 57.2533C188.189 57.2646 187.782 57.2883 187.373 57.3244C186.239 57.4239 185.089 57.5163 183.925 57.6016C183.268 57.65 182.593 57.7637 181.899 57.9429C181.196 58.124 180.504 58.333 179.823 58.57C179.02 58.1206 178.426 57.5211 178.039 56.7712C178.679 56.6907 179.306 56.5907 179.921 56.4712C180.616 56.3376 181.207 56.2532 181.697 56.2181C182.621 56.1541 183.546 56.0489 184.454 56.039C186.287 56.0191 188.009 56.0702 189.748 56.0063C190.434 55.9807 191.054 55.9992 191.607 56.0617C191.93 56.0977 192.252 56.1276 192.572 56.1513C193.527 56.2224 194.508 56.2935 195.516 56.3646Z" fill="#58B2DC"/>
    <path d="M196.614 57.4042L197.335 57.6928L197.847 57.9573C196.909 57.9241 195.983 57.891 195.068 57.8578C193.471 57.7995 191.821 57.8279 190.206 57.8165C189.275 57.8109 188.584 57.8469 188.134 57.9246C186.732 58.1663 185.608 58.6953 184.38 59.2711C184.174 59.2911 183.944 59.2982 183.69 59.2925C182.653 59.2707 181.638 59.1579 180.644 58.9541L179.824 58.5701C180.504 58.3332 181.196 58.1241 181.899 57.9431C182.593 57.7639 183.269 57.6502 183.925 57.6018C185.09 57.5165 186.239 57.4241 187.374 57.3246C187.782 57.2885 188.189 57.2648 188.595 57.2535C189.153 57.2378 189.685 57.1497 190.229 57.1454C191.159 57.1397 192.126 57.0615 193.041 57.161C193.832 57.2478 194.579 57.2535 195.388 57.3331C195.801 57.3739 196.21 57.3976 196.614 57.4042Z" fill="#5272BC"/>
    <path d="M208.825 57.8435C208.705 57.852 208.67 57.8027 208.719 57.6956C208.799 57.5183 208.909 57.3913 209.05 57.3145C209.118 57.2766 209.177 57.287 209.226 57.3458L209.687 57.889C209.78 57.9989 209.76 58.025 209.627 57.9672C209.385 57.8629 209.118 57.8217 208.825 57.8435Z" fill="#2349A3"/>
    <path d="M197.847 57.9573L198.77 58.3639C198.761 58.5289 198.698 58.6104 198.581 58.6085C197.124 58.5857 195.646 58.5573 194.146 58.5232C193.904 58.5175 193.574 58.5554 193.157 58.6369C192.14 58.836 191.04 58.8829 190.069 59.0137C189.092 59.1446 188.282 59.3251 187.639 59.5555C186.822 59.8484 185.998 59.9204 185.169 59.7716C184.872 59.7185 184.609 59.5517 184.38 59.2711C185.608 58.6952 186.732 58.1663 188.134 57.9246C188.585 57.8468 189.275 57.8108 190.206 57.8165C191.821 57.8279 193.471 57.7994 195.068 57.8577C195.983 57.8909 196.909 57.9241 197.847 57.9573Z" fill="#14326F"/>
    <path d="M208.493 58.2814C208.491 58.2814 208.489 58.281 208.487 58.2803C208.486 58.2796 208.484 58.2785 208.483 58.2772C208.481 58.2759 208.48 58.2743 208.48 58.2726C208.479 58.2709 208.479 58.269 208.479 58.2671V58.2586C208.479 58.2365 208.492 58.215 208.518 58.1955C208.544 58.1759 208.581 58.1586 208.628 58.1446C208.675 58.1306 208.73 58.1202 208.791 58.1139C208.852 58.1075 208.918 58.1055 208.983 58.1079L209.029 58.1107C209.161 58.1154 209.287 58.1375 209.38 58.1722C209.472 58.2068 209.524 58.2512 209.523 58.2956V58.3041C209.523 58.3061 209.522 58.3081 209.521 58.3099C209.521 58.3117 209.519 58.3134 209.518 58.3147C209.516 58.3161 209.515 58.3171 209.513 58.3177C209.511 58.3183 209.509 58.3185 209.507 58.3183L208.493 58.2814Z" fill="#2349A3"/>
    <path d="M198.77 58.3639C199.357 58.6767 199.823 59.0805 200.567 59.0706C200.619 59.0696 200.665 59.0848 200.707 59.1161C200.782 59.1739 200.838 59.2483 200.875 59.3393C200.886 59.3637 200.904 59.3838 200.928 59.396C200.952 59.4082 200.979 59.4118 201.005 59.4061L201.168 59.3706C201.34 59.3336 201.389 59.3938 201.315 59.5512L201.24 59.7104C201.194 59.81 201.224 59.8441 201.331 59.8128L201.602 59.7346C201.619 59.73 201.636 59.7292 201.653 59.7323C201.669 59.7353 201.685 59.7421 201.699 59.7521C201.713 59.7622 201.724 59.7752 201.732 59.7901C201.739 59.8051 201.743 59.8216 201.744 59.8384L201.748 60.238C201.748 60.2929 201.771 60.3361 201.817 60.3674C201.882 60.411 201.925 60.4659 201.948 60.5323C202.065 60.8527 202.126 61.1826 202.132 61.5219C202.133 61.5693 202.153 61.6063 202.194 61.6328C202.23 61.6575 202.273 61.6655 202.322 61.657C202.348 61.6525 202.374 61.654 202.399 61.6613C202.424 61.6686 202.447 61.6816 202.467 61.6992C202.486 61.7168 202.501 61.7385 202.51 61.7628C202.52 61.7871 202.523 61.8131 202.521 61.839C202.492 62.149 202.413 62.4405 202.284 62.7135C202.279 62.7256 202.276 62.739 202.278 62.7524C202.279 62.7657 202.284 62.7784 202.292 62.7893C202.3 62.8001 202.31 62.8087 202.323 62.8141C202.335 62.8196 202.349 62.8216 202.362 62.8201L202.936 62.7561C202.976 62.7515 203.016 62.7618 203.048 62.7851C203.08 62.8083 203.102 62.8427 203.109 62.8813C203.153 63.113 203.145 63.3235 203.226 63.551C204.016 65.8109 204.802 68.0442 205.584 70.251C205.589 70.2644 205.591 70.2787 205.589 70.2928C205.587 70.3069 205.581 70.3203 205.573 70.3319C205.565 70.3435 205.553 70.353 205.541 70.3594C205.528 70.3659 205.514 70.3692 205.499 70.369L202.756 70.3733C202.698 70.3733 202.663 70.3448 202.651 70.288L202.475 69.5002C202.46 69.4358 202.42 69.4035 202.354 69.4035L200.508 69.4021C200.441 69.4021 200.4 69.4343 200.384 69.4988L200.203 70.2425C200.195 70.2782 200.174 70.3099 200.145 70.3326C200.115 70.3553 200.079 70.3677 200.042 70.3676L197.387 70.3747C197.371 70.3746 197.355 70.3708 197.341 70.3635C197.326 70.3563 197.314 70.3458 197.305 70.333C197.295 70.3202 197.289 70.3054 197.287 70.2899C197.285 70.2744 197.286 70.2586 197.292 70.2439L199.459 64.2179C199.486 64.1733 199.53 64.1496 199.59 64.1468C199.951 64.125 200.325 64.1126 200.713 64.1098C200.723 64.1096 200.733 64.1068 200.741 64.1017C200.75 64.0965 200.758 64.0893 200.763 64.0805C200.768 64.0718 200.77 64.0619 200.771 64.0518C200.771 64.0418 200.768 64.0319 200.763 64.0231C200.369 63.3112 200.426 62.631 200.933 61.9826L201.165 61.6641C201.198 61.6196 201.215 61.5661 201.214 61.5117C201.214 61.4572 201.196 61.4045 201.162 61.3613L200.659 60.6958C200.51 60.3688 200.387 60.1882 200.289 60.1541C200.016 59.719 199.661 59.3123 199.13 59.3151C197.372 59.3284 195.662 59.3521 193.999 59.3862C193.619 59.3938 193.248 59.4455 192.884 59.5412C192.154 59.7327 191.413 59.8725 190.662 59.9607C189.965 60.0417 189.329 60.2692 188.716 60.5835C188.707 60.5883 188.699 60.5955 188.693 60.6044C188.687 60.6133 188.684 60.6236 188.684 60.6341C188.683 60.6447 188.686 60.6552 188.691 60.6645C188.696 60.6738 188.703 60.6817 188.712 60.6873L190.147 61.5603C187.496 61.3627 185.141 61.2034 182.609 61.566C180.66 61.8447 178.732 62.2623 176.826 62.8187C176.824 62.8189 176.823 62.8197 176.822 62.8209C176.821 62.8221 176.82 62.8236 176.821 62.8251C176.821 62.8266 176.822 62.828 176.823 62.8289C176.824 62.8299 176.826 62.8303 176.827 62.8301C177.309 62.8206 177.973 62.8073 178.82 62.7903C178.849 62.7893 178.876 62.796 178.9 62.8102C178.913 62.8178 178.925 62.8263 178.936 62.8358C178.954 62.8519 178.967 62.8718 178.976 62.8955L181.579 70.3008C181.582 70.3084 181.582 70.3165 181.581 70.3244C181.58 70.3324 181.577 70.3399 181.572 70.3464C181.567 70.3529 181.561 70.3582 181.553 70.3619C181.546 70.3656 181.538 70.3675 181.53 70.3676L178.76 70.3719C178.73 70.3719 178.701 70.3617 178.677 70.3431C178.654 70.3245 178.638 70.2985 178.631 70.2695L178.45 69.4775C178.438 69.4272 178.406 69.4021 178.353 69.4021L176.487 69.405C176.419 69.405 176.376 69.4381 176.36 69.5045L176.177 70.2624C176.17 70.2924 176.152 70.3192 176.128 70.3386C176.103 70.3579 176.073 70.3686 176.041 70.369L173.314 70.3733C173.305 70.3733 173.296 70.3713 173.289 70.3673C173.281 70.3633 173.274 70.3575 173.269 70.3504C173.264 70.3433 173.26 70.335 173.259 70.3264C173.258 70.3177 173.259 70.309 173.262 70.3008L175.782 63.1856C175.784 63.1788 175.785 63.1715 175.783 63.1644C175.782 63.1573 175.778 63.1508 175.773 63.1456C175.767 63.1404 175.761 63.1368 175.753 63.135C175.746 63.1333 175.738 63.1335 175.731 63.1358C173.702 63.7842 171.685 64.5278 169.68 65.3668C169.455 65.4606 169.243 65.5653 169.045 65.681C168.738 65.863 168.39 65.8929 168.063 66.0379C164.266 67.7285 160.463 69.4604 156.566 70.9946C156.55 71.0013 156.536 71.0018 156.526 70.9961C156.507 70.9856 156.508 70.9762 156.527 70.9676L175.16 61.8419C175.334 61.7565 175.325 61.731 175.134 61.7651C169.411 62.7898 163.656 63.7984 157.87 64.7909C156.755 64.9824 155.809 65.1554 155.03 65.3099C155.016 65.3127 155.006 65.307 155.001 65.2928V65.2914C154.997 65.2772 155.003 65.2677 155.017 65.263C155.129 65.225 155.241 65.1914 155.355 65.162C163.754 63.0073 172.184 60.938 180.645 58.954C181.638 59.1578 182.653 59.2706 183.69 59.2924C183.944 59.2981 184.174 59.291 184.38 59.2711C184.609 59.5517 184.872 59.7185 185.169 59.7716C185.998 59.9204 186.822 59.8484 187.639 59.5554C188.282 59.3251 189.092 59.1445 190.069 59.0137C191.04 58.8829 192.14 58.836 193.157 58.6369C193.574 58.5554 193.904 58.5175 194.146 58.5231C195.646 58.5573 197.124 58.5857 198.581 58.6085C198.698 58.6104 198.761 58.5288 198.77 58.3639ZM176.847 67.565C176.846 67.5721 176.846 67.5795 176.848 67.5866C176.849 67.5937 176.853 67.6002 176.858 67.6058C176.862 67.6114 176.868 67.6159 176.875 67.619C176.882 67.622 176.889 67.6235 176.896 67.6233L177.913 67.6205C177.92 67.6204 177.928 67.6188 177.934 67.6157C177.941 67.6125 177.946 67.608 177.951 67.6024C177.955 67.5969 177.959 67.5904 177.96 67.5834C177.962 67.5764 177.962 67.5692 177.961 67.5622L177.443 65.1919C177.44 65.1814 177.434 65.1721 177.426 65.1654C177.417 65.1588 177.406 65.1552 177.395 65.1552C177.384 65.1552 177.374 65.1588 177.365 65.1654C177.357 65.1721 177.35 65.1814 177.348 65.1919L176.847 67.565ZM200.867 67.5565C200.865 67.5636 200.865 67.571 200.867 67.5781C200.869 67.5851 200.872 67.5917 200.877 67.5973C200.882 67.6029 200.888 67.6074 200.894 67.6104C200.901 67.6135 200.908 67.6149 200.916 67.6148H201.911C201.918 67.6149 201.926 67.6135 201.932 67.6104C201.939 67.6074 201.945 67.6029 201.95 67.5973C201.954 67.5917 201.958 67.5851 201.96 67.5781C201.961 67.571 201.962 67.5636 201.96 67.5565L201.461 65.1833C201.458 65.1729 201.452 65.1635 201.444 65.1569C201.435 65.1502 201.424 65.1466 201.413 65.1466C201.402 65.1466 201.392 65.1502 201.383 65.1569C201.375 65.1635 201.368 65.1729 201.366 65.1833L200.867 67.5565Z" fill="#2349A3"/>
    <path d="M200.289 60.1539C198.785 60.1823 197.301 60.2074 195.835 60.2292C195.496 60.2349 195.17 60.2619 194.858 60.3103C194.532 60.3605 194.205 60.4003 193.877 60.4297C193.43 60.471 192.97 60.5776 192.516 60.6459C192.375 60.6677 192.235 60.6833 192.094 60.6928C191.916 60.7042 191.745 60.7539 191.584 60.8421C191.301 60.9966 190.997 61.1577 190.672 61.3255C190.635 61.3454 190.61 61.3758 190.599 61.4165C190.586 61.4668 190.585 61.5208 190.595 61.5786L190.147 61.5601L188.713 60.6871C188.703 60.6815 188.696 60.6736 188.691 60.6643C188.686 60.655 188.684 60.6445 188.684 60.6339C188.684 60.6234 188.688 60.6132 188.693 60.6043C188.699 60.5954 188.707 60.5881 188.717 60.5833C189.33 60.2691 189.966 60.0415 190.662 59.9605C191.413 59.8723 192.154 59.7325 192.885 59.541C193.248 59.4453 193.62 59.3936 194 59.3861C195.662 59.3519 197.372 59.3282 199.131 59.315C199.662 59.3121 200.016 59.7188 200.289 60.1539Z" fill="#041E4B"/>
    <path d="M200.289 60.1543C200.387 60.1884 200.511 60.369 200.66 60.696C199.854 60.8363 199.053 60.9449 198.257 61.0217C197.773 61.0681 197.291 61.1037 196.814 61.1283C196.566 61.1425 196.342 61.2278 196.09 61.2378C195.927 61.2444 195.759 61.2714 195.585 61.3188C194.642 61.5757 193.708 61.8359 192.783 62.0995C191.976 62.1838 191.247 62.0104 190.595 61.579C190.585 61.5212 190.587 61.4672 190.599 61.4169C190.611 61.3762 190.635 61.3459 190.673 61.3259C190.998 61.1582 191.302 60.997 191.584 60.8425C191.746 60.7543 191.916 60.7046 192.095 60.6932C192.235 60.6837 192.376 60.6681 192.516 60.6463C192.97 60.578 193.43 60.4714 193.877 60.4301C194.205 60.4008 194.532 60.3609 194.858 60.3107C195.171 60.2624 195.496 60.2353 195.836 60.2297C197.301 60.2079 198.786 60.1827 200.289 60.1543Z" fill="#69110D"/>
    <path d="M200.66 60.6958L201.163 61.3613C201.196 61.4045 201.214 61.4572 201.215 61.5117C201.215 61.5661 201.198 61.6195 201.166 61.6641L200.934 61.9826L201.052 61.7125C201.079 61.6508 201.059 61.6243 200.991 61.6328C200.793 61.6565 200.51 61.6907 200.142 61.7352C198.985 61.8736 197.924 62.0258 196.959 62.1916C196.322 62.3016 195.454 62.568 194.353 62.9907L193.616 62.84C193.326 62.7661 193.052 62.6604 192.794 62.5229C192.671 62.4575 192.667 62.3163 192.782 62.0992C193.707 61.8357 194.641 61.5755 195.585 61.3186C195.759 61.2712 195.927 61.2442 196.089 61.2375C196.342 61.2276 196.565 61.1423 196.813 61.1281C197.291 61.1034 197.772 61.0679 198.257 61.0214C199.053 60.9446 199.854 60.8361 200.66 60.6958Z" fill="#9F2819"/>
    <path d="M200.932 61.9827C200.425 62.6311 200.368 63.3112 200.762 64.0231C200.767 64.0319 200.77 64.0418 200.77 64.0519C200.77 64.062 200.767 64.0719 200.762 64.0806C200.757 64.0893 200.749 64.0966 200.741 64.1017C200.732 64.1069 200.722 64.1097 200.712 64.1099C200.324 64.1127 199.95 64.125 199.59 64.1468C199.529 64.1497 199.485 64.1734 199.458 64.2179C199.467 64.1819 199.461 64.1629 199.44 64.161C198.619 64.0852 197.793 64.1819 196.962 64.4511C196.599 64.3582 196.408 64.1786 196.389 63.9122C196.387 63.8667 196.362 63.8435 196.314 63.8425C195.536 63.8326 194.719 63.8411 194.352 62.9908C195.453 62.568 196.321 62.3017 196.958 62.1917C197.923 62.0258 198.984 61.8737 200.141 61.7353C200.509 61.6907 200.792 61.6566 200.99 61.6329C201.057 61.6244 201.078 61.6509 201.051 61.7125L200.932 61.9827Z" fill="#DD2A1B"/>
    <path d="M222.442 66.7687C222.411 68.63 220.849 70.2836 219.02 70.5126C217.515 70.7002 216.267 70.2353 215.273 69.1177C214.459 68.2005 214.176 66.9223 214.444 65.7364C215.158 62.5812 219.322 61.5276 221.452 63.9974C221.667 64.2467 221.88 64.5463 222.089 64.896C222.243 65.152 222.339 65.4188 222.376 65.6966C222.426 66.072 222.448 66.4293 222.442 66.7687ZM218.397 68.0598C218.741 68.0604 219.07 67.9099 219.313 67.6416C219.556 67.3732 219.693 67.0089 219.694 66.6287C219.694 66.4405 219.661 66.2541 219.596 66.0801C219.531 65.9061 219.436 65.7479 219.317 65.6146C219.197 65.4813 219.054 65.3755 218.897 65.3032C218.741 65.2309 218.572 65.1935 218.403 65.1932C218.059 65.1926 217.73 65.3431 217.487 65.6114C217.244 65.8798 217.107 66.2441 217.106 66.6243C217.106 66.8125 217.139 66.9989 217.204 67.1729C217.269 67.3469 217.364 67.5051 217.483 67.6384C217.603 67.7717 217.746 67.8775 217.903 67.9498C218.059 68.0221 218.228 68.0595 218.397 68.0598Z" fill="#2349A3"/>
    <path d="M193.616 62.84L194.353 62.9907C194.721 63.841 195.537 63.8325 196.316 63.8425C196.363 63.8434 196.388 63.8666 196.391 63.9121C196.409 64.1785 196.6 64.3581 196.963 64.451C197.15 65.0568 197.172 65.6544 197.03 66.2441C196.958 66.536 196.795 66.8256 196.541 67.1128C195.632 68.1352 194.663 68.1366 193.375 68.1764C193.322 68.1774 193.296 68.2044 193.296 68.2575L193.302 70.278C193.302 70.3387 193.271 70.369 193.209 70.369L190.654 70.3761C190.601 70.3761 190.574 70.3505 190.574 70.2993L190.576 62.8358C190.576 62.8307 190.577 62.8257 190.579 62.8211C190.581 62.8164 190.584 62.8122 190.587 62.8086C190.591 62.805 190.595 62.8022 190.6 62.8003C190.605 62.7984 190.61 62.7974 190.615 62.7974L193.616 62.84ZM193.31 64.997L193.313 66.1033C193.313 66.1229 193.321 66.1417 193.335 66.1556C193.349 66.1694 193.368 66.1772 193.388 66.1772L193.964 66.1758C194.115 66.1754 194.259 66.1198 194.366 66.0211C194.472 65.9224 194.532 65.7888 194.532 65.6497V65.4449C194.532 65.376 194.517 65.3078 194.488 65.2443C194.459 65.1807 194.417 65.1229 194.364 65.0743C194.311 65.0258 194.248 64.9873 194.179 64.9611C194.11 64.9349 194.035 64.9215 193.961 64.9217L193.385 64.9231C193.365 64.9231 193.346 64.9309 193.332 64.9448C193.318 64.9586 193.31 64.9774 193.31 64.997Z" fill="#2349A3"/>
    <path d="M184.79 65.9142L186.415 62.8272C186.419 62.8199 186.425 62.8137 186.432 62.8095C186.439 62.8052 186.447 62.803 186.456 62.8031L189.444 62.7974C189.452 62.7973 189.46 62.7992 189.467 62.8031C189.474 62.807 189.479 62.8127 189.483 62.8195C189.487 62.8263 189.489 62.834 189.489 62.8419C189.489 62.8498 189.487 62.8575 189.483 62.8642L187.249 66.5242C187.245 66.5313 187.243 66.5395 187.243 66.5478C187.243 66.5561 187.246 66.5642 187.25 66.5711L189.793 70.2993C189.797 70.306 189.8 70.3137 189.8 70.3216C189.801 70.3296 189.799 70.3375 189.795 70.3445C189.791 70.3515 189.785 70.3573 189.778 70.3614C189.772 70.3655 189.764 70.3676 189.756 70.3676L186.567 70.3775C186.559 70.3775 186.551 70.3754 186.544 70.3714C186.537 70.3674 186.532 70.3616 186.528 70.3548L184.79 67.3375C184.785 67.329 184.778 67.3224 184.769 67.3186C184.76 67.3148 184.75 67.3141 184.74 67.3165C184.73 67.3189 184.722 67.3244 184.716 67.332C184.71 67.3397 184.707 67.3491 184.706 67.3588L184.717 70.3249C184.717 70.3366 184.712 70.3478 184.703 70.3561C184.695 70.3644 184.684 70.369 184.672 70.369L182.079 70.3747C182.067 70.3747 182.056 70.37 182.047 70.3618C182.039 70.3535 182.034 70.3423 182.034 70.3306V62.8429C182.034 62.8312 182.039 62.82 182.047 62.8117C182.056 62.8034 182.067 62.7988 182.079 62.7988H184.67C184.682 62.7988 184.694 62.8034 184.702 62.8117C184.71 62.82 184.715 62.8312 184.715 62.8429L184.705 65.8929C184.704 65.9031 184.707 65.9132 184.714 65.9215C184.72 65.9297 184.729 65.9356 184.739 65.9381C184.749 65.9407 184.759 65.9397 184.769 65.9353C184.778 65.9309 184.786 65.9234 184.79 65.9142Z" fill="#2349A3"/>
    <path d="M208.724 67.3617L208.743 70.3221C208.743 70.3342 208.738 70.3457 208.729 70.3543C208.721 70.3628 208.709 70.3676 208.697 70.3676L206.097 70.3719C206.084 70.3719 206.073 70.3671 206.064 70.3585C206.055 70.35 206.05 70.3384 206.05 70.3264V62.8429C206.05 62.8308 206.055 62.8192 206.064 62.8107C206.073 62.8022 206.084 62.7974 206.097 62.7974H208.691C208.703 62.7974 208.715 62.8022 208.724 62.8107C208.732 62.8192 208.737 62.8308 208.737 62.8429L208.731 65.8801C208.731 65.8905 208.735 65.9006 208.741 65.9088C208.748 65.917 208.757 65.9228 208.767 65.9251C208.777 65.9274 208.788 65.9262 208.798 65.9216C208.807 65.9171 208.815 65.9094 208.819 65.9L210.427 62.8244C210.431 62.8172 210.437 62.8111 210.444 62.8068C210.451 62.8026 210.459 62.8003 210.468 62.8002L213.462 62.7974C213.47 62.7972 213.478 62.7992 213.486 62.8032C213.493 62.8072 213.499 62.8131 213.503 62.8203C213.507 62.8274 213.509 62.8356 213.509 62.8438C213.509 62.852 213.507 62.8601 213.502 62.8671L211.264 66.5242C211.259 66.5314 211.257 66.5398 211.257 66.5484C211.257 66.5569 211.259 66.5653 211.264 66.5725L213.809 70.2936C213.814 70.3005 213.817 70.3086 213.817 70.3169C213.818 70.3252 213.816 70.3335 213.812 70.3409C213.808 70.3482 213.802 70.3543 213.794 70.3585C213.787 70.3627 213.779 70.3649 213.77 70.3647L210.583 70.3761C210.575 70.3762 210.567 70.3741 210.56 70.3701C210.553 70.3661 210.547 70.3603 210.543 70.3534L208.811 67.3389C208.806 67.3301 208.798 67.3231 208.788 67.3191C208.779 67.3151 208.768 67.3144 208.758 67.317C208.748 67.3196 208.74 67.3254 208.733 67.3335C208.727 67.3416 208.724 67.3515 208.724 67.3617Z" fill="#2349A3"/>
    <path d="M225.801 66.3109C225.713 67.6001 225.587 68.9371 225.422 70.3221C225.421 70.3358 225.414 70.3485 225.404 70.3577C225.393 70.3669 225.38 70.3719 225.366 70.3718L222.844 70.3704C222.774 70.3704 222.746 70.3368 222.757 70.2695L224.015 62.9097C224.027 62.8367 224.071 62.8002 224.146 62.8002H226.743C226.809 62.8002 226.85 62.8315 226.867 62.8941L227.845 66.3834C227.894 66.5588 227.944 66.5588 227.994 66.3834L228.98 62.8869C228.996 62.8282 229.035 62.7988 229.097 62.7988L231.729 62.7974C231.784 62.7974 231.815 62.8244 231.824 62.8784L232.999 70.3121C233 70.3191 233 70.3261 232.998 70.3329C232.996 70.3396 232.993 70.3458 232.988 70.3511C232.984 70.3564 232.978 70.3606 232.972 70.3634C232.966 70.3663 232.959 70.3677 232.952 70.3676L230.416 70.3761C230.361 70.3761 230.33 70.3486 230.324 70.2936L229.903 66.2725C229.889 66.1322 229.865 66.1308 229.831 66.2682C229.512 67.5925 229.135 68.939 228.702 70.3078C228.688 70.3486 228.66 70.369 228.617 70.369L227.137 70.3718C227.083 70.3718 227.048 70.3467 227.033 70.2965C226.602 68.9021 226.227 67.5702 225.907 66.3009C225.852 66.0858 225.817 66.0891 225.801 66.3109Z" fill="#2349A3"/>
    <path d="M193.312 64.9972C193.312 64.9776 193.32 64.9588 193.334 64.945C193.348 64.9311 193.367 64.9233 193.387 64.9233L193.962 64.9219C194.037 64.9217 194.111 64.9351 194.18 64.9613C194.25 64.9875 194.313 65.0259 194.366 65.0745C194.419 65.1231 194.461 65.1809 194.49 65.2445C194.518 65.308 194.533 65.3762 194.533 65.4451V65.6499C194.534 65.789 194.474 65.9226 194.368 66.0213C194.261 66.12 194.116 66.1756 193.965 66.176L193.39 66.1774C193.37 66.1774 193.351 66.1696 193.337 66.1558C193.323 66.1419 193.315 66.1231 193.315 66.1035L193.312 64.9972Z" fill="white"/>
    <path d="M176.85 67.5649L177.35 65.1917C177.353 65.1813 177.359 65.1719 177.367 65.1653C177.376 65.1586 177.387 65.155 177.398 65.155C177.409 65.155 177.419 65.1586 177.428 65.1653C177.436 65.1719 177.443 65.1813 177.445 65.1917L177.963 67.562C177.964 67.5691 177.964 67.5763 177.963 67.5833C177.961 67.5902 177.958 67.5967 177.953 67.6023C177.949 67.6079 177.943 67.6124 177.936 67.6155C177.93 67.6186 177.923 67.6203 177.915 67.6203L176.899 67.6232C176.891 67.6233 176.884 67.6219 176.877 67.6188C176.871 67.6158 176.865 67.6113 176.86 67.6057C176.855 67.6001 176.852 67.5935 176.85 67.5865C176.848 67.5794 176.848 67.572 176.85 67.5649Z" fill="white"/>
    <path d="M200.868 67.5566L201.367 65.1834C201.369 65.173 201.375 65.1636 201.384 65.157C201.393 65.1503 201.403 65.1467 201.414 65.1467C201.425 65.1467 201.436 65.1503 201.444 65.157C201.453 65.1636 201.459 65.173 201.462 65.1834L201.961 67.5566C201.962 67.5637 201.962 67.5711 201.96 67.5782C201.959 67.5852 201.955 67.5918 201.951 67.5974C201.946 67.603 201.94 67.6075 201.933 67.6105C201.926 67.6136 201.919 67.615 201.912 67.6149H200.917C200.909 67.615 200.902 67.6136 200.895 67.6105C200.888 67.6075 200.883 67.603 200.878 67.5974C200.873 67.5918 200.87 67.5852 200.868 67.5782C200.866 67.5711 200.866 67.5637 200.868 67.5566Z" fill="white"/>
    <path d="M217.107 66.6244C217.106 67.416 217.684 68.0587 218.398 68.0599C219.113 68.0611 219.693 67.4204 219.694 66.6288C219.696 65.8373 219.118 65.1946 218.403 65.1933C217.689 65.1921 217.108 65.8328 217.107 66.6244Z" fill="white"/>
  </g>
  <circle cx="197" cy="123" r="4" fill="#F62D2F"/>
  <circle cx="197" cy="123" r="5.75" stroke="#F62D2F" stroke-width="0.5"/>
  <circle opacity="0.6" cx="197" cy="123" r="7.75" stroke="#F62D2F" stroke-width="0.5"/>
  <defs>
    <filter id="filter0_dddd_224_6169" x="0" y="0" width="253" height="239" filterUnits="userSpaceOnUse" color-interpolation-filters="sRGB">
      <feFlood flood-opacity="0" result="BackgroundImageFix"/>
      <feColorMatrix in="SourceAlpha" type="matrix" values="0 0 0 0 0 0 0 0 0 0 0 0 0 0 0 0 0 0 127 0" result="hardAlpha"/>
      <feOffset dx="-6" dy="5"/>
      <feGaussianBlur stdDeviation="8.5"/>
      <feColorMatrix type="matrix" values="0 0 0 0 0 0 0 0 0 0 0 0 0 0 0 0 0 0 0.1 0"/>
      <feBlend mode="normal" in2="BackgroundImageFix" result="effect1_dropShadow_224_6169"/>
      <feColorMatrix in="SourceAlpha" type="matrix" values="0 0 0 0 0 0 0 0 0 0 0 0 0 0 0 0 0 0 127 0" result="hardAlpha"/>
      <feOffset dx="-25" dy="19"/>
      <feGaussianBlur stdDeviation="15.5"/>
      <feColorMatrix type="matrix" values="0 0 0 0 0 0 0 0 0 0 0 0 0 0 0 0 0 0 0.09 0"/>
      <feBlend mode="normal" in2="effect1_dropShadow_224_6169" result="effect2_dropShadow_224_6169"/>
      <feColorMatrix in="SourceAlpha" type="matrix" values="0 0 0 0 0 0 0 0 0 0 0 0 0 0 0 0 0 0 127 0" result="hardAlpha"/>
      <feOffset dx="-56" dy="42"/>
      <feGaussianBlur stdDeviation="21"/>
      <feColorMatrix type="matrix" values="0 0 0 0 0 0 0 0 0 0 0 0 0 0 0 0 0 0 0.05 0"/>
      <feBlend mode="normal" in2="effect2_dropShadow_224_6169" result="effect3_dropShadow_224_6169"/>
      <feColorMatrix in="SourceAlpha" type="matrix" values="0 0 0 0 0 0 0 0 0 0 0 0 0 0 0 0 0 0 127 0" result="hardAlpha"/>
      <feOffset dx="-100" dy="74"/>
      <feGaussianBlur stdDeviation="25"/>
      <feColorMatrix type="matrix" values="0 0 0 0 0 0 0 0 0 0 0 0 0 0 0 0 0 0 0.01 0"/>
      <feBlend mode="normal" in2="effect3_dropShadow_224_6169" result="effect4_dropShadow_224_6169"/>
      <feBlend mode="normal" in="SourceGraphic" in2="effect4_dropShadow_224_6169" result="shape"/>
    </filter>
  </defs>
</svg>