<svg width="48" height="48" viewBox="0 0 48 48" fill="none" xmlns="http://www.w3.org/2000/svg">
<path d="M12 0C10.35 0 9 1.35 9 3V45C9 46.65 10.35 48 12 48H42C43.65 48 45 46.65 45 45V12L33 0H12Z" fill="#E2E5E7"/>
<path d="M36 12H45L33 0V9C33 10.65 34.35 12 36 12Z" fill="#B0B7BD"/>
<path d="M45 21L36 12H45V21Z" fill="#CAD1D8"/>
<path d="M39 39C39 39.825 38.325 40.5 37.5 40.5H4.5C3.675 40.5 3 39.825 3 39V24C3 23.175 3.675 22.5 4.5 22.5H37.5C38.325 22.5 39 23.175 39 24V39Z" fill="#FD0200"/>
<path d="M9.53809 28.4208C9.53809 28.0248 9.85009 27.5928 10.3526 27.5928H13.1231C14.6831 27.5928 16.0871 28.6368 16.0871 30.6378C16.0871 32.5338 14.6831 33.5898 13.1231 33.5898H11.1206V35.1738C11.1206 35.7018 10.7846 36.0003 10.3526 36.0003C9.95659 36.0003 9.53809 35.7018 9.53809 35.1738V28.4208ZM11.1206 29.1033V32.0913H13.1231C13.9271 32.0913 14.5631 31.3818 14.5631 30.6378C14.5631 29.7993 13.9271 29.1033 13.1231 29.1033H11.1206Z" fill="white"/>
<path d="M18.4359 36.0007C18.0399 36.0007 17.6079 35.7847 17.6079 35.2582V28.4452C17.6079 28.0147 18.0399 27.7012 18.4359 27.7012H21.1824C26.6634 27.7012 26.5434 36.0007 21.2904 36.0007H18.4359ZM19.1919 29.1652V34.5382H21.1824C24.4209 34.5382 24.5649 29.1652 21.1824 29.1652H19.1919Z" fill="white"/>
<path d="M28.4879 29.2607V31.1672H31.5464C31.9784 31.1672 32.4104 31.5992 32.4104 32.0177C32.4104 32.4137 31.9784 32.7377 31.5464 32.7377H28.4879V35.2562C28.4879 35.6762 28.1894 35.9987 27.7694 35.9987C27.2414 35.9987 26.9189 35.6762 26.9189 35.2562V28.4432C26.9189 28.0127 27.2429 27.6992 27.7694 27.6992H31.9799C32.5079 27.6992 32.8199 28.0127 32.8199 28.4432C32.8199 28.8272 32.5079 29.2592 31.9799 29.2592H28.4879V29.2607Z" fill="white"/>
<path d="M37.5 40.5H9V42H37.5C38.325 42 39 41.325 39 40.5V39C39 39.825 38.325 40.5 37.5 40.5Z" fill="#CAD1D8"/>
</svg>
