<svg width="38" height="38" viewBox="0 0 38 38" fill="none" xmlns="http://www.w3.org/2000/svg">
<path d="M27.9124 16.9421C30.5606 16.4613 32.9575 15.0701 34.6886 13.0091C36.4197 10.9481 37.376 8.34693 37.3922 5.65546C37.3917 5.24224 37.2274 4.84608 36.9352 4.55389C36.643 4.2617 36.2468 4.09734 35.8336 4.09687H32.0737C32.1071 3.69985 32.1331 3.30926 32.1517 2.9251C32.155 2.8549 32.1441 2.78477 32.1195 2.71894C32.0949 2.65311 32.0572 2.59295 32.0087 2.54211C31.9602 2.49127 31.9018 2.4508 31.8372 2.42314C31.7726 2.39549 31.7031 2.38123 31.6328 2.38123H6.36875C6.29843 2.38115 6.22882 2.39535 6.16415 2.42297C6.09947 2.45059 6.04108 2.49105 5.9925 2.5419C5.94393 2.59275 5.90618 2.65293 5.88155 2.7188C5.85692 2.78467 5.84592 2.85485 5.84922 2.9251C5.86723 3.30866 5.89326 3.69925 5.9273 4.09687H2.16797C1.75475 4.09734 1.35859 4.2617 1.0664 4.55389C0.774206 4.84608 0.609846 5.24224 0.609375 5.65546C0.625548 8.34697 1.58186 10.9482 3.31293 13.0092C5.04399 15.0703 7.44093 16.4615 10.0892 16.9424C10.9011 18.1464 11.893 19.2188 13.03 20.1222C14.0425 20.9098 15.2012 21.4887 16.439 21.8254C15.7319 23.9406 13.5107 25.5096 12.9784 25.8611H11.3539C11.2161 25.8611 11.084 25.9159 10.9866 26.0133C10.8892 26.1107 10.8344 26.2428 10.8343 26.3806V28.4587C10.8343 28.5965 10.8891 28.7287 10.9865 28.8261C11.0839 28.9235 11.2161 28.9783 11.3539 28.9783H11.923V32.5016H11.3539C11.2161 32.5016 11.084 32.5564 10.9866 32.6538C10.8892 32.7512 10.8344 32.8833 10.8343 33.0211V35.0992C10.8343 35.237 10.8891 35.3692 10.9865 35.4666C11.0839 35.564 11.2161 35.6188 11.3539 35.6188H26.6477C26.7855 35.6188 26.9176 35.564 27.0151 35.4666C27.1125 35.3692 27.1672 35.237 27.1672 35.0992V33.0211C27.1671 32.8833 27.1124 32.7512 27.015 32.6538C26.9176 32.5564 26.7855 32.5016 26.6477 32.5016H26.0786V28.9783H26.6477C26.7855 28.9783 26.9176 28.9235 27.0151 28.8261C27.1125 28.7287 27.1672 28.5965 27.1672 28.4587V26.3806C27.1671 26.2428 27.1124 26.1107 27.015 26.0133C26.9176 25.9159 26.7855 25.8611 26.6477 25.8611H25.0229C24.4909 25.5096 22.2697 23.9406 21.5625 21.8254C22.8003 21.4887 23.959 20.9098 24.9715 20.1222C26.1087 19.2188 27.1005 18.1463 27.9124 16.9421ZM26.1282 34.5797H11.8734V33.5406H26.1282V34.5797ZM25.0395 32.5016H12.962V28.9783H25.0395V32.5016ZM26.1282 27.9392H11.8734V26.9001H26.1282V27.9392ZM31.6575 7.21405H34.1278C33.9037 8.4042 33.4218 9.53088 32.7161 10.5151C32.0104 11.4992 31.0978 12.317 30.0425 12.9111C30.7701 11.0709 31.3112 9.16234 31.6575 7.21405ZM35.8336 5.13593C35.9713 5.13609 36.1034 5.19087 36.2008 5.28827C36.2982 5.38567 36.353 5.51772 36.3531 5.65546C36.3386 7.93412 35.5837 10.1463 34.2021 11.9584C32.8205 13.7705 30.8872 15.0843 28.6938 15.7017C28.9428 15.2695 29.1765 14.8241 29.3962 14.3696C30.9687 13.748 32.3433 12.7116 33.3736 11.3707C34.4039 10.0298 35.0513 8.4347 35.247 6.75508C35.2556 6.68234 35.2486 6.6086 35.2267 6.53872C35.2048 6.46883 35.1683 6.40437 35.1197 6.34959C35.0711 6.2948 35.0114 6.25092 34.9446 6.22083C34.8778 6.19073 34.8054 6.17511 34.7322 6.17499H31.8296C31.8817 5.82587 31.928 5.47951 31.9686 5.13593H35.8336ZM7.95911 12.9111C6.90376 12.317 5.9912 11.4992 5.28546 10.5151C4.57972 9.53088 4.0979 8.4042 3.87381 7.21405H6.34411C6.69037 9.16234 7.23141 11.0709 7.95911 12.9111ZM1.64844 5.65546C1.64859 5.51772 1.70338 5.38567 1.80078 5.28827C1.89818 5.19087 2.03023 5.13609 2.16797 5.13593H6.03269C6.07227 5.47912 6.11868 5.82547 6.17192 6.17499H3.26938C3.19603 6.175 3.12351 6.19053 3.0566 6.22056C2.98968 6.25059 2.92988 6.29444 2.88112 6.34923C2.83235 6.40402 2.79574 6.46851 2.77368 6.53846C2.75162 6.60841 2.74461 6.68223 2.75311 6.75508C2.94896 8.43458 3.59651 10.0295 4.62684 11.3702C5.65717 12.7109 7.03173 13.7472 8.60422 14.3687C8.82391 14.8239 9.05804 15.2681 9.30663 15.7011C7.11352 15.0835 5.18063 13.7696 3.7993 11.9577C2.41798 10.1457 1.6631 7.93384 1.64844 5.65546ZM23.2969 25.8608H14.7047C15.6844 25.0295 16.939 23.7016 17.4552 22.0513C18.4789 22.2175 19.5227 22.2175 20.5463 22.0513C21.0626 23.7016 22.3169 25.0289 23.2969 25.8608ZM17.1869 20.938C15.9056 20.6661 14.7027 20.107 13.6689 19.3028C9.22083 15.8377 7.27897 8.93207 6.91797 3.42029H31.0836C30.7232 8.93207 28.7813 15.8377 24.3335 19.3031C23.3343 20.0816 22.1765 20.6315 20.9417 20.914C19.7069 21.1965 18.4252 21.2047 17.1869 20.938Z" fill="#214AA3"/>
</svg>
