<svg width="38" height="38" viewBox="0 0 38 38" fill="none" xmlns="http://www.w3.org/2000/svg">
<path d="M4.04457 5.74438H3.68746C2.99743 5.74438 2.37178 6.02947 1.91964 6.48985C1.46749 6.95015 1.1875 7.58726 1.1875 8.28977C1.1875 12.7596 2.80387 16.8439 5.47313 19.972C7.54521 22.3996 10.2516 24.2505 13.3294 25.2571" stroke="#214AA3" stroke-width="1.2" stroke-miterlimit="10" stroke-linecap="round" stroke-linejoin="round"/>
<path d="M33.3305 5.74438H33.6876C35.0683 5.74438 36.1875 6.88402 36.1875 8.28984C36.1875 10.5247 35.7833 12.6637 35.0454 14.6338C34.3076 16.6048 33.2362 18.4076 31.9019 19.972C29.8298 22.3996 27.1234 24.2505 24.0449 25.2571" stroke="#214AA3" stroke-width="1.2" stroke-miterlimit="10" stroke-linecap="round" stroke-linejoin="round"/>
<path d="M24.0485 25.6448C24.0485 26.2917 23.6189 26.8587 23.003 27.0175C21.6238 27.3734 20.1793 27.5624 18.6914 27.5624C17.2035 27.5624 15.7588 27.3733 14.3794 27.0174C13.7636 26.8585 13.334 26.2915 13.334 25.6446C13.334 24.7395 14.1549 24.0727 15.0243 24.2614C16.2069 24.5182 17.4337 24.6533 18.6915 24.6533C19.9491 24.6533 21.1757 24.5183 22.3583 24.2616C23.2277 24.0728 24.0485 24.7397 24.0485 25.6448Z" stroke="#214AA3" stroke-width="1.2" stroke-miterlimit="10" stroke-linecap="round" stroke-linejoin="round"/>
<path d="M28.3282 7.92621V13.3807C28.3282 13.8825 28.1282 14.3378 27.8054 14.6665C27.4825 14.9952 27.0354 15.1989 26.5425 15.1989C25.5562 15.1989 24.7569 14.3851 24.7569 13.3807V12.6534C24.7569 12.1516 24.5569 11.6963 24.234 11.3676C23.9111 11.0389 23.464 10.8353 22.9712 10.8353C21.9848 10.8353 21.1855 11.6491 21.1855 12.6534V16.2898C21.1855 16.7916 20.9855 17.2469 20.6627 17.5756C20.3398 17.9043 19.8927 18.108 19.3998 18.108C18.4134 18.108 17.6142 17.2941 17.6142 16.2898V11.1989C17.6142 10.6971 17.4142 10.2418 17.0913 9.91307C16.7685 9.58438 16.3213 9.3807 15.8285 9.3807C14.8421 9.3807 14.0428 10.1945 14.0428 11.1989V14.1079C14.0428 14.6097 13.8428 15.065 13.52 15.3937C13.1971 15.7224 12.75 15.9261 12.2571 15.9261C11.2707 15.9261 10.4715 15.1123 10.4715 14.1079V7.92621H6.18582C5.59439 7.92621 5.05873 7.68182 4.67082 7.28693C4.28298 6.89203 4.04297 6.34655 4.04297 5.74435C4.04297 4.53924 5.00225 3.5625 6.18575 3.5625H31.1853C31.7767 3.5625 32.3124 3.80688 32.7003 4.20178C33.0881 4.59668 33.3281 5.14216 33.3281 5.74435C33.3281 6.94947 32.3688 7.92613 31.1853 7.92613L28.3282 7.92621Z" stroke="#214AA3" stroke-width="1.2" stroke-miterlimit="10" stroke-linecap="round" stroke-linejoin="round"/>
<path d="M31.9007 7.92621V33.3807C31.9007 34.5858 30.9414 35.5625 29.7579 35.5625H7.61544C6.43186 35.5625 5.47266 34.5858 5.47266 33.3807V7.92621" stroke="#214AA3" stroke-width="1.2" stroke-miterlimit="10" stroke-linecap="round" stroke-linejoin="round"/>
</svg>
