<svg width="38" height="38" viewBox="0 0 38 38" fill="none" xmlns="http://www.w3.org/2000/svg">
<g clip-path="url(#clip0_260_17186)">
<path d="M8.8668 8.23335H17.7335C18.2374 8.23335 18.7206 8.03317 19.077 7.67685C19.4333 7.32053 19.6335 6.83726 19.6335 6.33335C19.6335 5.82944 19.4333 5.34617 19.077 4.98985C18.7206 4.63353 18.2374 4.43335 17.7335 4.43335H8.8668C8.36289 4.43335 7.87961 4.63353 7.52329 4.98985C7.16697 5.34617 6.9668 5.82944 6.9668 6.33335C6.9668 6.83726 7.16697 7.32053 7.52329 7.67685C7.87961 8.03317 8.36289 8.23335 8.8668 8.23335ZM8.8668 5.70002H17.7335C17.9014 5.70002 18.0625 5.76674 18.1813 5.88552C18.3001 6.00429 18.3668 6.16538 18.3668 6.33335C18.3668 6.50132 18.3001 6.66241 18.1813 6.78118C18.0625 6.89996 17.9014 6.96668 17.7335 6.96668H8.8668C8.69883 6.96668 8.53774 6.89996 8.41896 6.78118C8.30019 6.66241 8.23346 6.50132 8.23346 6.33335C8.23346 6.16538 8.30019 6.00429 8.41896 5.88552C8.53774 5.76674 8.69883 5.70002 8.8668 5.70002Z" fill="#214AA3"/>
<path d="M37.4547 21.1844C37.5199 20.7145 37.4585 20.2358 37.2769 19.7976C37.0953 19.3594 36.8001 18.9776 36.4217 18.6916C36.17 18.5018 35.9901 18.2324 35.9113 17.9271C35.791 17.469 35.5509 17.0512 35.2156 16.7166C34.8804 16.382 34.4621 16.1427 34.0037 16.0233C33.7004 15.9428 33.4329 15.7631 33.2437 15.5129C32.9583 15.1334 32.5764 14.8373 32.1378 14.6557C31.6991 14.474 31.2197 14.4133 30.7496 14.4799C30.4373 14.522 30.1198 14.4585 29.8477 14.2994C29.4389 14.0605 28.9739 13.9346 28.5003 13.9346C28.0268 13.9346 27.5618 14.0605 27.1529 14.2994C26.9837 14.3967 26.796 14.4573 26.6019 14.4774V5.32634C26.6023 5.16032 26.5697 4.99588 26.506 4.84257C26.4423 4.68926 26.3487 4.55015 26.2308 4.43334L22.1667 0.369244C22.0497 0.251611 21.9105 0.158395 21.7572 0.0950086C21.6039 0.0316227 21.4396 -0.0006687 21.2737 1.04957e-05H1.9C1.39609 1.04957e-05 0.912816 0.200188 0.556497 0.556508C0.200178 0.912827 0 1.3961 0 1.90001L0 33.5667C0 34.0706 0.200178 34.5539 0.556497 34.9102C0.912816 35.2665 1.39609 35.4667 1.9 35.4667H20.6372C20.6944 35.7994 20.8683 36.1008 21.1278 36.3168C21.3872 36.5328 21.7151 36.6493 22.0527 36.6453H23.7095L24.6417 37.5788C24.9162 37.8485 25.2855 37.9998 25.6703 38C25.7614 37.9997 25.8523 37.9913 25.942 37.9747C26.1723 37.9312 26.3887 37.8328 26.5728 37.6878C26.7569 37.5428 26.9033 37.3555 26.9996 37.1418L28.5 33.8339L29.9991 37.138C30.095 37.3526 30.2414 37.5407 30.4258 37.6864C30.6102 37.8321 30.8271 37.931 31.058 37.9747C31.2914 38.0174 31.5316 38.0034 31.7585 37.9339C31.9853 37.8643 32.1921 37.7412 32.3614 37.575L33.2905 36.6453H34.9473C35.1872 36.6453 35.4234 36.5859 35.6347 36.4722C35.8459 36.3585 36.0257 36.1942 36.1579 35.994C36.29 35.7938 36.3705 35.564 36.392 35.325C36.4135 35.0861 36.3754 34.8456 36.2811 34.625L34.5401 30.635C34.8755 30.4649 35.171 30.2256 35.4071 29.9329C35.6433 29.6402 35.8147 29.3008 35.91 28.937C35.9905 28.6338 36.1702 28.3662 36.4205 28.177C36.7989 27.8907 37.0942 27.5087 37.2757 27.0703C37.4573 26.6319 37.5186 26.153 37.4534 25.6829C37.4126 25.3705 37.4758 25.0533 37.6333 24.7804C37.8725 24.3717 37.9986 23.9066 37.9986 23.433C37.9986 22.9594 37.8725 22.4944 37.6333 22.0856C37.4746 21.8137 37.4117 21.4963 37.4547 21.1844ZM22.1667 2.16158L24.4397 4.43334H22.8C22.632 4.43334 22.4709 4.36662 22.3522 4.24785C22.2334 4.12907 22.1667 3.96798 22.1667 3.80001V2.16158ZM20.9038 34.2H1.9C1.73203 34.2 1.57094 34.1333 1.45217 34.0145C1.33339 33.8957 1.26667 33.7346 1.26667 33.5667V1.90001C1.26667 1.73204 1.33339 1.57095 1.45217 1.45218C1.57094 1.3334 1.73203 1.26668 1.9 1.26668H20.9V3.80001C20.9 4.30392 21.1002 4.78719 21.4565 5.14351C21.8128 5.49983 22.2961 5.70001 22.8 5.70001H25.3333V14.5166C24.7057 14.648 24.1464 15.0012 23.7582 15.5116C23.5685 15.7633 23.299 15.9433 22.9938 16.0221C22.5357 16.1423 22.1178 16.3824 21.7832 16.7177C21.4486 17.053 21.2093 17.4713 21.09 17.9297C21.0095 18.2329 20.8298 18.5005 20.5795 18.6897C20.2011 18.976 19.9059 19.358 19.7243 19.7964C19.5427 20.2348 19.4814 20.7137 19.5466 21.1837C19.5895 21.4961 19.5259 21.8138 19.3661 22.0856C19.1268 22.4944 19.0008 22.9594 19.0008 23.433C19.0008 23.9066 19.1268 24.3717 19.3661 24.7804C19.5243 25.0521 19.587 25.369 19.544 25.6804C19.4789 26.1502 19.5402 26.629 19.7218 27.0672C19.9034 27.5054 20.1986 27.8872 20.577 28.1732C20.8287 28.3629 21.0087 28.6324 21.0875 28.9376C21.183 29.3013 21.3546 29.6405 21.5908 29.9329C21.8271 30.2254 22.1226 30.4644 22.458 30.6343L20.9038 34.2ZM25.8438 36.6219C25.8317 36.6499 25.8128 36.6744 25.7888 36.6932C25.7648 36.712 25.7365 36.7245 25.7064 36.7295C25.6757 36.7359 25.6439 36.7346 25.6137 36.7259C25.5836 36.7172 25.5561 36.7013 25.5335 36.6795L24.5784 35.7238C24.3565 35.5029 24.0562 35.3788 23.743 35.3786H22.0527C22.022 35.3788 21.9917 35.3712 21.9647 35.3566C21.9377 35.342 21.9148 35.3208 21.8981 35.295C21.8815 35.2716 21.8711 35.2443 21.8679 35.2157C21.8647 35.1871 21.8688 35.1582 21.8798 35.1316L23.6018 31.1809C23.6588 31.2344 23.7112 31.2926 23.7582 31.3551C24.0435 31.7347 24.4254 32.0308 24.8641 32.2125C25.3028 32.3942 25.7822 32.4548 26.2523 32.388C26.5647 32.3454 26.8823 32.4089 27.1542 32.5685C27.294 32.648 27.4407 32.7147 27.5924 32.768L25.8438 36.6219ZM35.1171 35.1259C35.1291 35.1531 35.134 35.183 35.1313 35.2126C35.1285 35.2422 35.1181 35.2706 35.1012 35.295C35.0846 35.3208 35.0617 35.342 35.0347 35.3566C35.0077 35.3712 34.9774 35.3788 34.9467 35.3786H33.2563C32.9438 35.3787 32.644 35.5024 32.4222 35.7225L31.4722 36.6725C31.4496 36.6953 31.4217 36.7122 31.391 36.7215C31.3602 36.7309 31.3277 36.7326 31.2962 36.7264C31.2655 36.7211 31.2366 36.7081 31.2124 36.6886C31.1881 36.6691 31.1692 36.6438 31.1575 36.6149L29.4107 32.7642C29.5643 32.7107 29.7127 32.6433 29.8541 32.5628C30.1261 32.4054 30.4426 32.3428 30.754 32.3849C31.2239 32.4507 31.7028 32.3896 32.1411 32.2079C32.5795 32.0263 32.9612 31.7308 33.2468 31.3519C33.2936 31.29 33.3455 31.2322 33.402 31.179L35.1171 35.1259ZM36.5433 24.1382V24.1439C36.243 24.6603 36.1237 25.2621 36.2045 25.8539C36.2385 26.1004 36.2062 26.3516 36.1109 26.5814C36.0156 26.8113 35.8608 27.0116 35.6624 27.1618C35.184 27.5246 34.8414 28.0376 34.6896 28.6184C34.6265 28.8589 34.5005 29.0782 34.3247 29.254C34.1488 29.4297 33.9294 29.5555 33.6889 29.6185C33.1077 29.7691 32.5944 30.1117 32.2322 30.5906C32.0809 30.7878 31.8804 30.9416 31.6509 31.0366C31.4213 31.1317 31.1707 31.1646 30.9244 31.1321C30.3296 31.0507 29.7247 31.1709 29.2062 31.4735C28.9917 31.6 28.7474 31.6667 28.4984 31.6667C28.2495 31.6667 28.0051 31.6 27.7907 31.4735C27.3812 31.2348 26.9156 31.1091 26.4417 31.1093C26.3198 31.1096 26.1982 31.118 26.0775 31.1347C25.8311 31.1677 25.5803 31.1349 25.3506 31.0397C25.1209 30.9445 24.9205 30.7902 24.7697 30.5925C24.4069 30.1142 23.8939 29.7716 23.313 29.6197C23.0725 29.5566 22.8532 29.4307 22.6775 29.2548C22.5017 29.079 22.3759 28.8596 22.313 28.6191C22.1623 28.0379 21.8197 27.5246 21.3408 27.1624C21.1423 27.0123 20.9875 26.812 20.8924 26.5821C20.7972 26.3522 20.765 26.101 20.7993 25.8546C20.8808 25.2598 20.7606 24.6548 20.4579 24.1363C20.3315 23.9219 20.2648 23.6775 20.2648 23.4286C20.2648 23.1797 20.3315 22.9353 20.4579 22.7208C20.7583 22.2045 20.8775 21.6027 20.7968 21.0108C20.7628 20.7643 20.7951 20.5132 20.8904 20.2834C20.9857 20.0535 21.1405 19.8532 21.3389 19.703C21.8173 19.3402 22.1599 18.8272 22.3117 18.2463C22.3748 18.0059 22.5008 17.7865 22.6766 17.6108C22.8524 17.4351 23.0719 17.3093 23.3124 17.2463C23.8936 17.0956 24.4069 16.7531 24.769 16.2741C24.9202 16.0769 25.1207 15.9231 25.3503 15.828C25.5799 15.7329 25.8305 15.7 26.0769 15.7326C26.6717 15.8137 27.2765 15.6935 27.7951 15.3913C28.0095 15.2648 28.2539 15.1981 28.5029 15.1981C28.7518 15.1981 28.9962 15.2648 29.2106 15.3913C29.7268 15.6919 30.3288 15.8112 30.9206 15.7301C31.1671 15.6968 31.418 15.7294 31.6477 15.8246C31.8774 15.9199 32.0778 16.0743 32.2284 16.2722C32.5912 16.7506 33.1042 17.0932 33.6851 17.245C33.9256 17.3082 34.1449 17.4341 34.3206 17.6099C34.4964 17.7858 34.6222 18.0052 34.6851 18.2457C34.8358 18.8269 35.1784 19.3402 35.6573 19.7024C35.8558 19.8525 36.0106 20.0528 36.1058 20.2827C36.2009 20.5126 36.2331 20.7638 36.1988 21.0102C36.1173 21.605 36.2375 22.21 36.5402 22.7284C36.666 22.9419 36.7327 23.1851 36.7332 23.4329C36.7338 23.6807 36.6682 23.9242 36.5433 24.1382Z" fill="#214AA3"/>
<path d="M28.4994 17.1C27.2467 17.1 26.0223 17.4714 24.9807 18.1673C23.9392 18.8633 23.1275 19.8524 22.6481 21.0096C22.1688 22.1669 22.0433 23.4403 22.2877 24.6689C22.5321 25.8974 23.1353 27.0259 24.021 27.9117C24.9067 28.7974 26.0352 29.4006 27.2638 29.6449C28.4923 29.8893 29.7657 29.7639 30.923 29.2845C32.0803 28.8052 33.0694 27.9934 33.7653 26.9519C34.4612 25.9104 34.8327 24.6859 34.8327 23.4333C34.8308 21.7542 34.163 20.1443 32.9757 18.957C31.7883 17.7697 30.1785 17.1018 28.4994 17.1ZM28.4994 28.5C27.4973 28.5 26.5177 28.2028 25.6845 27.6461C24.8513 27.0894 24.2018 26.298 23.8184 25.3722C23.4349 24.4464 23.3345 23.4277 23.53 22.4449C23.7255 21.462 24.2081 20.5592 24.9167 19.8506C25.6253 19.142 26.5281 18.6595 27.5109 18.464C28.4937 18.2685 29.5125 18.3688 30.4383 18.7523C31.3641 19.1358 32.1554 19.7852 32.7121 20.6184C33.2689 21.4516 33.566 22.4312 33.566 23.4333C33.5645 24.7766 33.0302 26.0645 32.0804 27.0143C31.1305 27.9642 29.8427 28.4985 28.4994 28.5Z" fill="#214AA3"/>
<path d="M4.43411 12.0333H22.1674C22.3354 12.0333 22.4965 11.9666 22.6153 11.8478C22.7341 11.7291 22.8008 11.568 22.8008 11.4C22.8008 11.232 22.7341 11.0709 22.6153 10.9522C22.4965 10.8334 22.3354 10.7667 22.1674 10.7667H4.43411C4.26614 10.7667 4.10505 10.8334 3.98628 10.9522C3.86751 11.0709 3.80078 11.232 3.80078 11.4C3.80078 11.568 3.86751 11.7291 3.98628 11.8478C4.10505 11.9666 4.26614 12.0333 4.43411 12.0333Z" fill="#214AA3"/>
<path d="M4.43411 15.2H20.9008C21.0688 15.2 21.2298 15.1333 21.3486 15.0145C21.4674 14.8957 21.5341 14.7347 21.5341 14.5667C21.5341 14.3987 21.4674 14.2376 21.3486 14.1188C21.2298 14.0001 21.0688 13.9333 20.9008 13.9333H4.43411C4.26614 13.9333 4.10505 14.0001 3.98628 14.1188C3.86751 14.2376 3.80078 14.3987 3.80078 14.5667C3.80078 14.7347 3.86751 14.8957 3.98628 15.0145C4.10505 15.1333 4.26614 15.2 4.43411 15.2Z" fill="#214AA3"/>
<path d="M18.3674 17.1H13.9341C13.7661 17.1 13.6051 17.1667 13.4863 17.2855C13.3675 17.4042 13.3008 17.5653 13.3008 17.7333C13.3008 17.9013 13.3675 18.0624 13.4863 18.1811C13.6051 18.2999 13.7661 18.3666 13.9341 18.3666H18.3674C18.5354 18.3666 18.6965 18.2999 18.8153 18.1811C18.9341 18.0624 19.0008 17.9013 19.0008 17.7333C19.0008 17.5653 18.9341 17.4042 18.8153 17.2855C18.6965 17.1667 18.5354 17.1 18.3674 17.1Z" fill="#214AA3"/>
<path d="M4.43411 18.3666H11.4008C11.5688 18.3666 11.7298 18.2999 11.8486 18.1811C11.9674 18.0624 12.0341 17.9013 12.0341 17.7333C12.0341 17.5653 11.9674 17.4042 11.8486 17.2855C11.7298 17.1667 11.5688 17.1 11.4008 17.1H4.43411C4.26614 17.1 4.10505 17.1667 3.98628 17.2855C3.86751 17.4042 3.80078 17.5653 3.80078 17.7333C3.80078 17.9013 3.86751 18.0624 3.98628 18.1811C4.10505 18.2999 4.26614 18.3666 4.43411 18.3666Z" fill="#214AA3"/>
<path d="M8.23242 20.9C8.23242 21.068 8.29915 21.2291 8.41792 21.3478C8.53669 21.4666 8.69778 21.5333 8.86576 21.5333H17.0991C17.2671 21.5333 17.4282 21.4666 17.5469 21.3478C17.6657 21.2291 17.7324 21.068 17.7324 20.9C17.7324 20.732 17.6657 20.5709 17.5469 20.4522C17.4282 20.3334 17.2671 20.2667 17.0991 20.2667H8.86576C8.69778 20.2667 8.53669 20.3334 8.41792 20.4522C8.29915 20.5709 8.23242 20.732 8.23242 20.9Z" fill="#214AA3"/>
<path d="M4.43411 21.5333H6.33411C6.50208 21.5333 6.66318 21.4666 6.78195 21.3478C6.90072 21.2291 6.96745 21.068 6.96745 20.9C6.96745 20.732 6.90072 20.5709 6.78195 20.4522C6.66318 20.3334 6.50208 20.2667 6.33411 20.2667H4.43411C4.26614 20.2667 4.10505 20.3334 3.98628 20.4522C3.86751 20.5709 3.80078 20.732 3.80078 20.9C3.80078 21.068 3.86751 21.2291 3.98628 21.3478C4.10505 21.4666 4.26614 21.5333 4.43411 21.5333Z" fill="#214AA3"/>
<path d="M4.43411 24.7H17.1008C17.2688 24.7 17.4298 24.6333 17.5486 24.5145C17.6674 24.3957 17.7341 24.2347 17.7341 24.0667C17.7341 23.8987 17.6674 23.7376 17.5486 23.6188C17.4298 23.5001 17.2688 23.4333 17.1008 23.4333H4.43411C4.26614 23.4333 4.10505 23.5001 3.98628 23.6188C3.86751 23.7376 3.80078 23.8987 3.80078 24.0667C3.80078 24.2347 3.86751 24.3957 3.98628 24.5145C4.10505 24.6333 4.26614 24.7 4.43411 24.7Z" fill="#214AA3"/>
<path d="M17.7341 26.6H4.43411C4.26614 26.6 4.10505 26.6667 3.98628 26.7855C3.86751 26.9042 3.80078 27.0653 3.80078 27.2333C3.80078 27.4013 3.86751 27.5624 3.98628 27.6811C4.10505 27.7999 4.26614 27.8666 4.43411 27.8666H17.7341C17.9021 27.8666 18.0632 27.7999 18.182 27.6811C18.3007 27.5624 18.3674 27.4013 18.3674 27.2333C18.3674 27.0653 18.3007 26.9042 18.182 26.7855C18.0632 26.6667 17.9021 26.6 17.7341 26.6Z" fill="#214AA3"/>
<path d="M11.4008 29.7667H4.43411C4.26614 29.7667 4.10505 29.8334 3.98628 29.9522C3.86751 30.0709 3.80078 30.232 3.80078 30.4C3.80078 30.568 3.86751 30.7291 3.98628 30.8478C4.10505 30.9666 4.26614 31.0333 4.43411 31.0333H11.4008C11.5688 31.0333 11.7298 30.9666 11.8486 30.8478C11.9674 30.7291 12.0341 30.568 12.0341 30.4C12.0341 30.232 11.9674 30.0709 11.8486 29.9522C11.7298 29.8334 11.5688 29.7667 11.4008 29.7667Z" fill="#214AA3"/>
<path d="M29.9524 21.7189L27.2335 24.4378L27.0479 24.2523C26.9285 24.1369 26.7685 24.0731 26.6024 24.0745C26.4364 24.0759 26.2775 24.1425 26.1601 24.26C26.0427 24.3774 25.9761 24.5362 25.9746 24.7023C25.9732 24.8684 26.037 25.0283 26.1524 25.1478L26.7857 25.7811C26.9045 25.8999 27.0656 25.9666 27.2335 25.9666C27.4014 25.9666 27.5625 25.8999 27.6813 25.7811L30.8479 22.6145C30.9633 22.495 31.0271 22.335 31.0257 22.169C31.0242 22.0029 30.9576 21.8441 30.8402 21.7266C30.7228 21.6092 30.5639 21.5426 30.3979 21.5412C30.2318 21.5397 30.0718 21.6036 29.9524 21.7189Z" fill="#214AA3"/>
</g>
<defs>
<clipPath id="clip0_260_17186">
<rect width="38" height="38" fill="white"/>
</clipPath>
</defs>
</svg>
