<svg width="38" height="38" viewBox="0 0 38 38" fill="none" xmlns="http://www.w3.org/2000/svg">
<path d="M19.3355 18.4085C19.3275 18.4085 19.3195 18.4085 19.3195 18.4085H16.7105C16.3824 18.4085 16.1103 18.6806 16.1103 19.0087V25.6673H15.278C14.9498 25.6673 14.6777 25.9394 14.6777 26.2675C14.6777 26.5956 14.9498 26.8677 15.278 26.8677H16.1103V27.9001H15.278C14.9498 27.9001 14.6777 28.1722 14.6777 28.5004C14.6777 28.8285 14.9498 29.1006 15.278 29.1006H16.1103V32.2218C16.1103 32.5499 16.3824 32.822 16.7105 32.822C17.0386 32.822 17.3107 32.5499 17.3107 32.2218V29.1006H21.1202C21.4483 29.1006 21.7204 28.8285 21.7204 28.5004C21.7204 28.1722 21.4483 27.9001 21.1202 27.9001H17.3107V26.8677H19.3195C21.5363 26.8677 23.337 24.987 23.337 22.6661C23.337 20.3532 21.5844 18.4805 19.3355 18.4085ZM19.3195 25.6673H17.3107V19.609H19.3115C20.8961 19.665 22.1366 21.0095 22.1366 22.6661C22.1366 24.3228 20.8721 25.6673 19.3195 25.6673Z" fill="#214AA3"/>
<path d="M28.5867 11.4779L25.0974 8.6608C25.2894 8.1406 25.4175 7.5964 25.4655 7.02818C25.4655 7.02018 25.4655 7.02018 25.4655 7.01217C25.6816 3.79495 23.4647 0.857826 20.3115 0.177567C18.751 -0.182571 17.1023 0.00950344 15.6858 0.713772C14.2532 1.42604 13.1488 2.6265 12.5646 4.08306C12.4446 4.38717 12.5886 4.73931 12.9007 4.85935C13.2048 4.9794 13.557 4.83535 13.677 4.52323C14.6454 2.0983 17.3824 0.72978 20.0394 1.34601H20.0474C22.6164 1.89823 24.4251 4.29914 24.257 6.92414C24.225 7.24426 24.169 7.54838 24.089 7.85249L19.3432 4.01903C19.1191 3.84296 18.807 3.84296 18.5909 4.01903L9.4194 11.4699C9.27534 11.5819 9.19531 11.758 9.19531 11.934V37.3998C9.19531 37.7279 9.46742 38 9.79554 38H28.2026C28.5307 38 28.8028 37.7279 28.8028 37.3998V11.934C28.8108 11.766 28.7308 11.5979 28.5867 11.4779ZM27.6183 36.8155H27.6103H10.4038V12.2302L18.975 5.2595L23.6168 9.00493C23.1926 9.76522 22.5844 10.4055 21.8481 10.8857C21.6961 10.6296 21.512 10.3895 21.2879 10.1814C20.6397 9.54113 19.7913 9.20501 18.903 9.21301C18.0387 9.22902 17.2304 9.57315 16.6462 10.1974C16.0379 10.8376 15.7018 11.71 15.7338 12.5823C15.7578 13.4306 16.1099 14.2229 16.7262 14.7991C17.3184 15.4154 18.1107 15.7595 18.975 15.7755C18.991 15.7755 19.0071 15.7755 19.0231 15.7755C19.9034 15.7755 20.7277 15.4314 21.368 14.7991C21.376 14.7911 21.376 14.7911 21.384 14.7831C21.9922 14.1429 22.3283 13.2706 22.2963 12.3982C22.2963 12.2782 22.2803 12.1581 22.2643 12.0381C23.2087 11.4779 24.009 10.6936 24.5692 9.75722L27.6183 12.2142V36.8155ZM19.2231 12.9824C19.2391 12.9824 19.2471 12.9824 19.2631 12.9824C19.8954 12.9424 20.5116 12.8144 21.0878 12.6063C21.0638 13.1105 20.8558 13.5987 20.5116 13.9668C20.0955 14.375 19.5593 14.5911 18.991 14.5831C18.4468 14.5751 17.9506 14.359 17.5825 13.9668C17.5745 13.9588 17.5665 13.9508 17.5585 13.9428C17.1744 13.5827 16.9503 13.0945 16.9343 12.5583C16.9183 11.9981 17.1343 11.4459 17.5185 11.0377C17.8866 10.6536 18.3828 10.4375 18.927 10.4215C18.935 10.4215 18.951 10.4215 18.959 10.4215C19.5192 10.4215 20.0474 10.6456 20.4556 11.0457C20.4636 11.0537 20.4636 11.0537 20.4716 11.0617C20.5917 11.1738 20.6957 11.3018 20.7837 11.4379C20.2795 11.6299 19.7513 11.742 19.1911 11.782C18.855 11.806 18.6069 12.0861 18.6229 12.4222C18.6389 12.7424 18.903 12.9824 19.2231 12.9824Z" fill="#214AA3"/>
</svg>
